#N canvas 0 0 450 300 10;
#X obj 123 196 mvcf~;
#X obj 84 51 noise~;
#X floatatom 135 13 5 0 100 0 - - -;
#X floatatom 135 48 5 0 0 0 - - -;
#X obj 135 67 sig~;
#X floatatom 182 11 5 0 100 0 - - -;
#X floatatom 182 46 5 0 0 0 - - -;
#X obj 182 65 sig~;
#X obj 182 27 * 0.01;
#X obj 121 270 dac~;
#X obj 119 224 *~ 0.1;
#X obj 135 29 * 0.01;
#X msg 231 83 clear;
#X msg 280 83 debug \$1;
#X obj 280 61 tgl 15 0 empty empty empty 17 7 0 10 -262144 -1 -1 0
1;
#X obj 245 153 adsr 1 40 380 50 700;
#X connect 0 0 10 0;
#X connect 1 0 0 0;
#X connect 2 0 11 0;
#X connect 3 0 4 0;
#X connect 4 0 0 1;
#X connect 5 0 8 0;
#X connect 6 0 7 0;
#X connect 7 0 0 2;
#X connect 8 0 6 0;
#X connect 10 0 9 0;
#X connect 10 0 9 1;
#X connect 11 0 3 0;
#X connect 12 0 0 0;
#X connect 13 0 0 0;
#X connect 14 0 13 0;
