#N canvas 0 22 450 300 10;
#X obj 102 141 positive;
#X floatatom 102 120 0 0 0 0 - - -;
#X floatatom 102 162 0 0 0 0 - - -;
#X msg 45 86 2;
#X msg 103 86 -2;
#X msg 167 86 -3.25;
#X msg 132 86 -1.9;
#X msg 74 86 0;
#X text 43 26 positive always outputs positive numbers.;
#X text 44 41 Negative numbers are shifted up \, so that the fractional
part always remains between 0 and 1;
#X msg 9 86 3.33;
#X msg 208 86 -4.001;
#X text 72 209 Edward Kelly 2012;
#X connect 0 0 2 0;
#X connect 1 0 0 0;
#X connect 3 0 1 0;
#X connect 4 0 1 0;
#X connect 5 0 1 0;
#X connect 6 0 1 0;
#X connect 7 0 1 0;
#X connect 10 0 1 0;
#X connect 11 0 1 0;
