#N canvas 10 10 200 200 10;
#N canvas 20 20 420 300 META 0;
#X text 10 10 META this is a prototype of a libdir meta file;
#X text 10 10 NAME oscx;
#X text 10 10 AUTHOR <jdl@xdv.org>;
#X text 10 10 LICENSE BSD;
#X text 10 10 DESCRIPTION objects for working with OpenSoundControl;
#X restore 10 10 pd META;
