#N canvas 96 645 777 410 10;
#X obj 97 73 bng 15 250 50 0 empty empty empty 17 7 0 10 -262144 -1
-1;
#X obj 411 55 table src2 1000;
#X msg 139 91 src src2;
#X msg 152 140 dst dst2;
#X obj 85 248 bng 15 250 50 0 empty empty empty 17 7 0 10 -262144 -1
-1;
#X obj 411 105 table dst2 300;
#X obj 410 33 table src 10;
#X obj 411 85 table dst 50;
#X obj 87 205 tab_upsample src dst 3;
#X msg 182 177 factor 5;
#X msg 237 125 1;
#X text 267 127 offset;
#X connect 0 0 8 0;
#X connect 2 0 8 0;
#X connect 3 0 8 0;
#X connect 8 0 4 0;
#X connect 9 0 8 0;
#X connect 10 0 8 0;
