#N canvas 2627 54 958 980 10;
#X obj 147 81 loadbang;
#X msg 482 180 /oled/gClear;
#X text 578 790 paint entire screen black;
#N canvas 2834 311 450 300 sinewave 0;
#X msg 70 22 /oled/gWaveform 3 120 122 124 127 129 131 134 136 138
141 143 145 147 150 152 154 157 159 161 163 165 168 170 172 174 176
178 180 182 184 186 188 190 192 194 196 197 199 201 203 204 206 207
209 211 212 214 215 216 218 219 220 222 223 224 225 226 227 228 229
230 231 232 233 233 234 235 235 236 236 237 237 238 238 238 238 239
239 239 239 239 239 239 239 239 238 238 238 237 237 237 236 236 235
234 234 233 232 231 231 230 229 228 227 226 225 223 222 221 220 218
217 216 214 213 211 210 208 207 205 203 202 200 198 196 195 193 191
189 187 185 183 181 179 177 175 173 171 169 166 164 162 160 158 155
153 151 149 146 144 142 139 137 135 132 130 128 125 123 121 118 116
114 111 109 107 104 102 100 97 95 93 90 88 86 84 81 79 77 75 73 70
68 66 64 62 60 58 56 54 52 50 48 46 44 43 41 39 37 36 34 32 31 29 28
26 25 23 22 21 19 18 17 16 14 13 12 11 10 9 8 8 7 6 5 5 4 3 3 2 2 2
1 1 1 0 0 0 0 0 0 0 0 0 1 1 1 1 2 2 3 3 4 4 5 6 6 7 8 9 10 11 12 13
14 15 16 17 19 20 21 23 24 25 27 28 30 32 33 35 36 38 40 42 43 45 47
49 51 53 55 57 59 61 63 65 67 69 71 74 76 78 80 82 85 87 89 92 94 96
98 101 103 105 108 110 112 6;
#X obj 45 0 inlet;
#X obj 22 267 outlet;
#X connect 0 0 2 0;
#X connect 1 0 0 0;
#X restore 133 491 pd sinewave;
#X obj 189 769 s oscOut;
#X msg 322 845 /oled/gFlip;
#X obj 338 811 t b;
#N canvas 768 492 450 300 randompixels 0;
#X msg 56 224 /oled/gFlip;
#X obj 154 201 pack f f f;
#X msg 154 224 /oled/gSetPixel 3 \$1 \$2 \$3;
#X obj 301 154 random 200;
#X obj 140 129 t b b b;
#X obj 301 176 % 8;
#X obj 153 47 tgl 15 0 empty empty empty 17 7 0 10 -262144 -1 -1 0
1;
#X obj 141 153 random 320;
#X obj 221 154 random 240;
#X obj 95 81 f;
#X obj 143 96 + 1;
#X obj 95 125 sel 0;
#X obj 90 273 outlet;
#X obj 134 10 inlet;
#X obj 142 69 metro 30;
#X obj 95 103 % 80;
#X connect 0 0 12 0;
#X connect 1 0 2 0;
#X connect 2 0 12 0;
#X connect 3 0 5 0;
#X connect 4 0 7 0;
#X connect 4 1 8 0;
#X connect 4 2 3 0;
#X connect 5 0 1 2;
#X connect 6 0 14 0;
#X connect 7 0 1 0;
#X connect 8 0 1 1;
#X connect 9 0 10 0;
#X connect 9 0 15 0;
#X connect 10 0 9 1;
#X connect 11 0 0 0;
#X connect 13 0 6 0;
#X connect 14 0 4 0;
#X connect 14 0 9 0;
#X connect 15 0 11 0;
#X restore 479 230 pd randompixels;
#X obj 153 146 t b b b b b b b b b b b b b b b b b b;
#N canvas 878 223 450 300 clearscreen 1;
#X msg 96 97 /oled/gFillArea 3 0 0 320 240 8;
#X obj 97 130 t b;
#X msg 97 152 /oled/gFlip;
#X obj 52 188 outlet;
#X obj 64 56 inlet;
#X connect 0 0 1 0;
#X connect 0 0 3 0;
#X connect 1 0 2 0;
#X connect 2 0 3 0;
#X connect 4 0 0 0;
#X restore 58 682 pd clearscreen;
#N canvas 2561 489 450 300 randomlines 0;
#X msg 56 224 /oled/gFlip;
#X obj 355 94 random 200;
#X obj 355 116 % 8;
#X obj 92 32 tgl 15 0 empty empty empty 17 7 0 10 -262144 -1 -1 0 1
;
#X obj 80 138 random 320;
#X obj 160 139 random 240;
#X obj 34 66 f;
#X obj 82 81 + 1;
#X obj 34 110 sel 0;
#X obj 90 273 outlet;
#X obj 73 -5 inlet;
#X msg 154 224 /oled/gLine 3 \$1 \$2 \$3 \$4 \$5;
#X obj 154 201 pack f f f f f;
#X obj 154 75 t b b b b b;
#X obj 250 148 random 320;
#X obj 330 149 random 240;
#X obj 81 53 metro 30;
#X obj 34 88 % 66;
#X connect 0 0 9 0;
#X connect 1 0 2 0;
#X connect 2 0 12 4;
#X connect 3 0 16 0;
#X connect 4 0 12 0;
#X connect 5 0 12 1;
#X connect 6 0 7 0;
#X connect 6 0 17 0;
#X connect 7 0 6 1;
#X connect 8 0 0 0;
#X connect 10 0 3 0;
#X connect 11 0 9 0;
#X connect 12 0 11 0;
#X connect 13 0 4 0;
#X connect 13 1 5 0;
#X connect 13 2 14 0;
#X connect 13 3 15 0;
#X connect 13 4 1 0;
#X connect 14 0 12 2;
#X connect 15 0 12 3;
#X connect 16 0 6 0;
#X connect 16 0 13 0;
#X connect 17 0 8 0;
#X restore 479 319 pd randomlines;
#N canvas 1945 330 450 300 rcircles 0;
#X msg 56 224 /oled/gFlip;
#X obj 355 94 random 200;
#X obj 355 116 % 8;
#X obj 92 32 tgl 15 0 empty empty empty 17 7 0 10 -262144 -1 -1 0 1
;
#X obj 80 138 random 320;
#X obj 160 139 random 240;
#X obj 34 66 f;
#X obj 82 81 + 1;
#X obj 34 110 sel 0;
#X obj 90 273 outlet;
#X obj 73 -5 inlet;
#X obj 154 75 t b b b b b;
#X obj 250 146 random 50;
#X obj 152 202 pack f f f f;
#X msg 154 224 /oled/gCircle 3 \$1 \$2 \$3 \$4;
#X obj 81 53 metro 30;
#X obj 34 88 % 100;
#X connect 0 0 9 0;
#X connect 1 0 2 0;
#X connect 2 0 13 3;
#X connect 3 0 15 0;
#X connect 4 0 13 0;
#X connect 5 0 13 1;
#X connect 6 0 7 0;
#X connect 6 0 16 0;
#X connect 7 0 6 1;
#X connect 8 0 0 0;
#X connect 10 0 3 0;
#X connect 11 0 4 0;
#X connect 11 1 5 0;
#X connect 11 2 12 0;
#X connect 11 4 1 0;
#X connect 12 0 13 2;
#X connect 13 0 14 0;
#X connect 14 0 9 0;
#X connect 15 0 6 0;
#X connect 15 0 11 0;
#X connect 16 0 8 0;
#X restore 473 435 pd rcircles;
#N canvas 2554 401 450 300 rbox 0;
#X msg 56 224 /oled/gFlip;
#X obj 355 94 random 200;
#X obj 355 116 % 8;
#X obj 92 32 tgl 15 0 empty empty empty 17 7 0 10 -262144 -1 -1 0 1
;
#X obj 80 138 random 320;
#X obj 160 139 random 240;
#X obj 34 66 f;
#X obj 82 81 + 1;
#X obj 34 110 sel 0;
#X obj 90 273 outlet;
#X obj 73 -5 inlet;
#X obj 154 75 t b b b b b;
#X obj 239 138 random 50;
#X obj 81 53 metro 30;
#X obj 154 206 pack f f f f f;
#X obj 312 147 random 50;
#X msg 154 224 /oled/gBox 3 \$1 \$2 \$3 \$4 \$5;
#X obj 34 88 % 100;
#X connect 0 0 9 0;
#X connect 1 0 2 0;
#X connect 2 0 14 4;
#X connect 3 0 13 0;
#X connect 4 0 14 0;
#X connect 5 0 14 1;
#X connect 6 0 7 0;
#X connect 6 0 17 0;
#X connect 7 0 6 1;
#X connect 8 0 0 0;
#X connect 10 0 3 0;
#X connect 11 0 4 0;
#X connect 11 1 5 0;
#X connect 11 2 12 0;
#X connect 11 3 15 0;
#X connect 11 4 1 0;
#X connect 12 0 14 2;
#X connect 13 0 6 0;
#X connect 13 0 11 0;
#X connect 14 0 16 0;
#X connect 15 0 14 3;
#X connect 16 0 9 0;
#X connect 17 0 8 0;
#X restore 466 525 pd rbox;
#N canvas 2729 415 450 300 fillarea 0;
#X msg 56 224 /oled/gFlip;
#X obj 355 94 random 200;
#X obj 355 116 % 8;
#X obj 92 32 tgl 15 0 empty empty empty 17 7 0 10 -262144 -1 -1 1 1
;
#X obj 80 138 random 320;
#X obj 159 140 random 240;
#X obj 34 66 f;
#X obj 82 81 + 1;
#X obj 34 110 sel 0;
#X obj 90 273 outlet;
#X obj 73 -5 inlet;
#X obj 154 75 t b b b b b;
#X obj 81 53 metro 30;
#X msg 158 226 /oled/gFillArea 3 \$1 \$2 \$3 \$4 \$5;
#X obj 152 202 pack f f f f f;
#X obj 246 128 random 100;
#X obj 273 161 random 100;
#X obj 34 88 % 100;
#X connect 0 0 9 0;
#X connect 1 0 2 0;
#X connect 2 0 14 4;
#X connect 3 0 12 0;
#X connect 4 0 14 0;
#X connect 5 0 14 1;
#X connect 6 0 7 0;
#X connect 6 0 17 0;
#X connect 7 0 6 1;
#X connect 8 0 0 0;
#X connect 10 0 3 0;
#X connect 11 0 4 0;
#X connect 11 1 5 0;
#X connect 11 2 15 0;
#X connect 11 3 16 0;
#X connect 11 4 1 0;
#X connect 12 0 6 0;
#X connect 12 0 11 0;
#X connect 13 0 9 0;
#X connect 14 0 13 0;
#X connect 15 0 14 2;
#X connect 16 0 14 3;
#X connect 17 0 8 0;
#X restore 464 596 pd fillarea;
#X obj 60 658 r clear;
#X obj 466 259 s clear;
#X obj 468 341 s clear;
#X obj 456 462 s clear;
#X obj 446 549 s clear;
#X obj 446 628 s clear;
#X obj 263 96 bng 15 250 50 0 empty empty empty 17 7 0 10 -262144 -1
-1;
#X obj 103 432 bng 15 250 50 0 empty empty empty 17 7 0 10 -262144
-1 -1;
#X msg 353 792 /oled/gFillArea 3 0 0 320 240 8;
#X obj 486 207 del 2000;
#X obj 483 294 del 2000;
#X obj 470 410 del 2000;
#X obj 460 500 del 2000;
#X obj 458 575 del 2000;
#X obj 346 216 delay 3000;
#X obj 280 283 delay 3000;
#X obj 230 333 delay 3000;
#X obj 157 409 delay 3000;
#X obj 138 448 del 3000;
#X obj 69 495 del 200;
#X obj 147 103 del 500;
#X connect 0 0 34 0;
#X connect 1 0 4 0;
#X connect 3 0 4 0;
#X connect 5 0 4 0;
#X connect 6 0 5 0;
#X connect 7 0 4 0;
#X connect 8 14 28 0;
#X connect 8 15 23 0;
#X connect 8 16 7 0;
#X connect 8 17 1 0;
#X connect 9 0 4 0;
#X connect 10 0 4 0;
#X connect 11 0 4 0;
#X connect 12 0 4 0;
#X connect 13 0 4 0;
#X connect 14 0 9 0;
#X connect 20 0 8 0;
#X connect 21 0 3 0;
#X connect 21 0 33 0;
#X connect 22 0 4 0;
#X connect 22 0 6 0;
#X connect 23 0 7 0;
#X connect 23 0 15 0;
#X connect 24 0 16 0;
#X connect 24 0 10 0;
#X connect 25 0 11 0;
#X connect 25 0 17 0;
#X connect 26 0 18 0;
#X connect 26 0 12 0;
#X connect 27 0 19 0;
#X connect 27 0 13 0;
#X connect 28 0 10 0;
#X connect 28 0 24 0;
#X connect 28 0 29 0;
#X connect 29 0 11 0;
#X connect 29 0 25 0;
#X connect 29 0 30 0;
#X connect 30 0 12 0;
#X connect 30 0 26 0;
#X connect 30 0 31 0;
#X connect 31 0 13 0;
#X connect 31 0 27 0;
#X connect 31 0 32 0;
#X connect 32 0 3 0;
#X connect 33 0 9 0;
