#N canvas 265 493 302 376 10;
#X obj 174 38 inlet~;
#X obj 47 146 *~;
#X obj 159 126 *~;
#X obj 49 270 outlet~;
#X obj 48 38 inlet~;
#X obj 159 102 abs~;
#X obj 161 149 +~ 1;
#X obj 64 121 +~ 1;
#X obj 106 178 /~;
#X obj 107 149 sig~ 1;
#X obj 48 219 *~;
#X connect 0 0 2 1;
#X connect 0 0 7 0;
#X connect 1 0 10 0;
#X connect 2 0 6 0;
#X connect 4 0 1 0;
#X connect 4 0 5 0;
#X connect 5 0 2 0;
#X connect 6 0 8 1;
#X connect 7 0 1 1;
#X connect 8 0 10 1;
#X connect 9 0 8 0;
#X connect 10 0 3 0;
