#N canvas 763 469 372 383 10;
#X obj 37 59 phasor~;
#X obj 37 83 *~ 2;
#X obj 37 105 -~ 1;
#X obj 37 126 abs~;
#X obj 38 193 *~;
#X obj 38 147 *~ 2;
#X obj 37 168 +~ -1;
#X obj 89 119 *~ 2;
#X obj 88 141 +~ -1;
#X obj 37 215 *~;
#X obj 88 98 expr~ $v1 > 0.5;
#X obj 37 258 wrap~;
#X obj 36 237 *~ 0.5;
#X obj 36 279 rzero~ 1;
#X obj 117 208 samplerate~;
#X obj 117 187 loadbang;
#X obj 37 301 *~;
#X obj 117 256 /~;
#X obj 117 231 sig~;
#X obj 37 36 inlet~;
#X obj 117 278 *~ 0.25;
#X obj 38 323 outlet~;
#X connect 0 0 1 0;
#X connect 0 0 10 0;
#X connect 1 0 2 0;
#X connect 2 0 3 0;
#X connect 3 0 5 0;
#X connect 4 0 9 0;
#X connect 5 0 6 0;
#X connect 6 0 4 0;
#X connect 6 0 4 1;
#X connect 7 0 8 0;
#X connect 8 0 9 1;
#X connect 9 0 12 0;
#X connect 10 0 7 0;
#X connect 11 0 13 0;
#X connect 12 0 11 0;
#X connect 13 0 16 0;
#X connect 14 0 18 0;
#X connect 15 0 14 0;
#X connect 16 0 21 0;
#X connect 17 0 20 0;
#X connect 18 0 17 0;
#X connect 19 0 0 0;
#X connect 19 0 17 1;
#X connect 20 0 16 1;
