#N canvas 1162 696 486 306 10;
#X obj 78 212 tabwrite sinc;
#X obj 78 77 _until;
#X obj 78 96 t f f;
#X obj 78 117 / 4096;
#X obj 78 136 * 76.969;
#X obj 78 193 /;
#X obj 78 174 sin;
#X obj 78 155 t f f;
#X obj 210 168 soundfiler;
#X msg 78 58 4096;
#X obj 188 39 table sinc 4096;
#X msg 51 240 0 1;
#X obj 51 261 s sinc;
#X obj 51 18 bng 15 250 50 0 empty empty empty 17 7 0 10 -262144 -1
-1;
#X obj 51 37 t b b;
#X msg 210 145 write sinc.wav sinc;
#X connect 1 0 2 0;
#X connect 2 0 3 0;
#X connect 2 1 0 1;
#X connect 3 0 4 0;
#X connect 4 0 7 0;
#X connect 5 0 0 0;
#X connect 6 0 5 0;
#X connect 7 0 6 0;
#X connect 7 1 5 1;
#X connect 9 0 1 0;
#X connect 11 0 12 0;
#X connect 13 0 14 0;
#X connect 14 0 11 0;
#X connect 14 1 9 0;
#X connect 15 0 8 0;
