#N canvas 270 93 496 221 10;
#X text 12 116 LICENSE GNU GPL;
#X text 10 39 AUTHOR Cyrille Henry;
#X text 10 19 NAME nusmuk-utils;
#X text 10 58 DESCRIPTION This objects' collection is based on abstractions
and externals. they provide usfull stuff for pd.;
#X text 11 136 VERSION 2.01511e+07;
