#N canvas 375 95 1007 853 10;
#X obj 397 563 -;
#X obj 397 585 abs;
#X obj 166 505 spigot;
#X obj 397 476 spigot;
#X obj 410 273 tgl 15 0 empty empty empty 17 7 0 10 -262144 -1 -1 1
1;
#X obj 165 459 t f f;
#X text 263 356 if the knob is locked \, route to check for unlock
;
#X obj 397 513 t f b;
#X text 489 490 snapshot of knob1 before it was locked;
#X obj 158 27 inlet;
#X obj 397 642 sel 1;
#X msg 397 669 0;
#X obj 137 635 outlet;
#X text 445 575 if it changes more than 20 it has been moved \, so
disable lock;
#X obj 415 233 r \$0-lock;
#X obj 397 694 s \$0-lock;
#X obj 166 574 v \$0-snapshot;
#X msg 371 232 1;
#X obj 494 211 loadbang;
#X msg 494 235 0;
#X obj 371 207 bang;
#X obj 429 541 v \$0-snapshot;
#X obj 397 609 > \$1;
#X obj 371 178 r knob\$2Override;
#X obj 294 407 == 0;
#N canvas 943 268 450 300 once 0;
#X obj 114 70 inlet;
#X obj 144 225 outlet;
#X obj 114 138 sel 0;
#X obj 114 108 f 0;
#X obj 114 185 t b b;
#X msg 170 109 1;
#X text 120 46 once;
#X connect 0 0 3 0;
#X connect 2 0 4 0;
#X connect 3 0 2 0;
#X connect 4 0 5 0;
#X connect 4 1 1 0;
#X connect 5 0 3 1;
#X restore 188 102 pd once;
#X obj 188 201 f;
#X obj 188 235 v \$0-snapshot;
#X obj 165 63 t f b f;
#X obj 410 317 t f f f, f 8;
#X obj 188 132 f;
#X obj 188 159 sel 1;
#X obj 166 600 print;
#X obj 176 550 bng 15 250 50 0 empty empty empty 17 7 0 10 -262144
-1 -1;
#X text 279 81 for the very first value recieved \, check if it was
already overridden \, if so \, initialize \$0-snapshot;
#X obj 715 230 expr ( $f1 + $f2 + $f3 + $f4 ) / 4;
#X obj 714 207 f;
#X obj 714 139 tgl 15 0 empty empty empty 17 7 0 10 -262144 -1 -1 1
1;
#X obj 791 209 f;
#X obj 714 178 t b b b b;
#X obj 870 207 f;
#X obj 949 207 f;
#X obj 714 120 loadbang;
#X obj 756 254 int;
#X obj 714 277 f;
#X obj 756 280 f;
#X obj 714 306 ==;
#X obj 714 391 s knob\$2Override;
#X obj 714 352 sel 1;
#X text 806 144 average some stuff;
#X obj 714 157 metro 200;
#X connect 0 0 1 0;
#X connect 1 0 22 0;
#X connect 2 0 16 0;
#X connect 2 0 12 0;
#X connect 3 0 7 0;
#X connect 4 0 29 0;
#X connect 5 0 2 0;
#X connect 5 1 3 0;
#X connect 7 0 0 0;
#X connect 7 1 21 0;
#X connect 9 0 28 0;
#X connect 10 0 11 0;
#X connect 11 0 15 0;
#X connect 14 0 4 0;
#X connect 16 0 32 0;
#X connect 17 0 4 0;
#X connect 18 0 19 0;
#X connect 19 0 4 0;
#X connect 20 0 17 0;
#X connect 21 0 0 1;
#X connect 22 0 10 0;
#X connect 23 0 20 0;
#X connect 24 0 2 1;
#X connect 25 0 30 0;
#X connect 26 0 27 0;
#X connect 28 0 5 0;
#X connect 28 1 25 0;
#X connect 28 2 26 1;
#X connect 28 2 36 1;
#X connect 29 0 24 0;
#X connect 29 1 3 1;
#X connect 29 2 30 1;
#X connect 30 0 31 0;
#X connect 31 0 26 0;
#X connect 33 0 16 0;
#X connect 35 0 43 0;
#X connect 36 0 35 0;
#X connect 36 0 38 1;
#X connect 36 0 44 0;
#X connect 37 0 50 0;
#X connect 38 0 35 1;
#X connect 38 0 40 1;
#X connect 39 0 36 0;
#X connect 39 1 38 0;
#X connect 39 2 40 0;
#X connect 39 3 41 0;
#X connect 40 0 35 2;
#X connect 40 0 41 1;
#X connect 41 0 35 3;
#X connect 42 0 37 0;
#X connect 43 0 45 0;
#X connect 44 0 46 0;
#X connect 45 0 46 1;
#X connect 46 0 48 0;
#X connect 48 0 47 0;
#X connect 50 0 39 0;
