#N canvas 932 693 297 331 10;
#X obj 19 265 outlet~;
#X obj 45 187 shmem \$1 2560;
#X obj 45 130 * 64;
#X obj 18 103 t b f;
#X obj 18 19 inlet;
#X obj 34 80 r send~-\$1;
#X obj 18 42 route send~-\$1;
#X obj 40 219 table \$0-buff 64;
#X obj 18 240 tabplay~ \$0-buff;
#X obj 45 149 pack f \$0;
#X msg 45 168 memdump \$1 \$2-buff;
#X connect 2 0 9 0;
#X connect 3 0 8 0;
#X connect 3 1 2 0;
#X connect 4 0 6 0;
#X connect 5 0 3 0;
#X connect 6 0 3 0;
#X connect 8 0 0 0;
#X connect 9 0 10 0;
#X connect 10 0 1 0;
