#N canvas 223 107 586 521 10;
#X obj 23 14 inlet~;
#X obj 24 373 /~;
#X obj 24 402 outlet~;
#X obj 234 151 dbtorms;
#X obj 234 130 + 3;
#X obj 234 175 + 0.1;
#X obj 234 222 moses 1;
#X obj 234 292 f;
#X obj 234 268 + 0.5;
#X obj 234 245 * 0.5;
#X obj 234 58 env~ 128 64;
#X obj 234 197 env+ 11;
#X obj 234 339 line~;
#X obj 335 59 env~ 1024 128;
#X obj 234 102 max;
#X msg 234 316 \$1 4;
#X obj 24 294 / 44100;
#X obj 24 192 loadbang;
#X text 298 262 change this curve if you wish;
#X obj 63 242 samplerate~;
#X obj 24 218 t b b;
#X obj 24 316 * 1000;
#X obj 24 337 delread~ \$0-delay;
#X obj 63 263 sel 0;
#X msg 24 242 256;
#X obj 23 79 delwrite~ \$0-delay 20;
#X connect 0 0 10 0;
#X connect 0 0 13 0;
#X connect 0 0 25 0;
#X connect 1 0 2 0;
#X connect 3 0 5 0;
#X connect 4 0 3 0;
#X connect 5 0 11 0;
#X connect 6 0 9 0;
#X connect 6 1 7 0;
#X connect 7 0 15 0;
#X connect 8 0 7 0;
#X connect 9 0 8 0;
#X connect 10 0 14 0;
#X connect 11 0 6 0;
#X connect 12 0 1 1;
#X connect 13 0 14 1;
#X connect 14 0 4 0;
#X connect 15 0 12 0;
#X connect 16 0 21 0;
#X connect 17 0 20 0;
#X connect 19 0 23 0;
#X connect 20 0 24 0;
#X connect 20 1 19 0;
#X connect 21 0 22 0;
#X connect 22 0 1 0;
#X connect 23 1 16 1;
#X connect 24 0 16 0;
