#N canvas 327 481 450 300 10;
#X obj 38 206 oscillo~;
#X obj 39 24 osc~ 222;
#X obj 60 172 dac~;
#X obj 60 148 *~ 0.1;
#X floatatom 151 28 5 0 100 0 - - -, f 5;
#X obj 151 64 line~;
#X msg 151 44 \$1 100;
#X text 199 28 distortion %;
#X obj 38 121 distortion2~;
#X connect 1 0 8 0;
#X connect 3 0 2 1;
#X connect 3 0 2 0;
#X connect 4 0 6 0;
#X connect 5 0 8 1;
#X connect 6 0 5 0;
#X connect 8 0 3 0;
#X connect 8 0 0 0;
