#N canvas 43 685 618 354 10;
#X obj 37 107 phasor~;
#X obj 37 129 -~ 0.5;
#X obj 51 255 *~;
#X obj 37 169 wrap~;
#X obj 52 199 -~ 0.5;
#X obj 36 278 -~;
#X obj 99 169 abs~;
#X obj 145 146 /~;
#X obj 146 119 sig~ 1;
#X obj 153 22 inlet;
#X obj 37 300 outlet~;
#X obj 37 21 inlet~;
#X obj 100 197 *~;
#X obj 430 140 soundfiler;
#X msg 430 121 read isinc.wav \$1-Isinc;
#X obj 429 171 table \$0-Isinc 4096;
#X obj 430 101 f \$0;
#X obj 430 83 bng 15 250 50 0 empty empty empty 17 7 0 10 -262144 -1
-1;
#X obj 430 62 loadbang;
#X obj 161 96 /~ 48000;
#X text 188 167 <- adjust the cutoff frequency here;
#X obj 146 168 *~ 80;
#X obj 206 57 samplerate~;
#X obj 206 77 moses 1;
#X obj 206 36 loadbang;
#X text 84 259 <- table envelope (we don't unse sinc integration table
from -inf to inf \, only on 1 periode of the saw);
#X obj 100 222 tabread4~ \$0-Isinc;
#X connect 0 0 1 0;
#X connect 1 0 3 0;
#X connect 1 0 6 0;
#X connect 2 0 5 1;
#X connect 3 0 4 0;
#X connect 3 0 5 0;
#X connect 4 0 2 0;
#X connect 5 0 10 0;
#X connect 6 0 12 0;
#X connect 7 0 21 0;
#X connect 8 0 7 0;
#X connect 9 0 0 1;
#X connect 11 0 0 0;
#X connect 11 0 19 0;
#X connect 12 0 26 0;
#X connect 14 0 13 0;
#X connect 16 0 14 0;
#X connect 17 0 16 0;
#X connect 18 0 17 0;
#X connect 19 0 7 1;
#X connect 21 0 12 1;
#X connect 22 0 23 0;
#X connect 23 0 19 1;
#X connect 24 0 22 0;
#X connect 26 0 2 1;
