#N canvas 1166 417 461 575 10;
#X obj 83 263 tabwrite sinc;
#X obj 83 111 _until;
#X obj 83 130 t f f;
#X obj 56 282 tab_integrate sinc Isinc;
#X obj 56 265 bng 15 250 50 0 empty empty empty 17 7 0 10 -262144 -1
-1;
#X obj 56 339 tab_mul_scalar Isinc;
#X obj 56 73 t b b;
#X obj 29 30 bng 15 250 50 0 empty empty empty 17 7 0 10 -262144 -1
-1;
#X obj 29 387 _until;
#X obj 29 406 t f f;
#X obj 29 514 tabwrite Isinc2;
#X obj 76 472 tabread Isinc;
#X obj 29 49 t b b;
#X msg 83 92 8192;
#X obj 83 149 - 4096;
#X obj 76 451 f;
#X obj 56 320 /;
#X msg 29 368 4096;
#X obj 83 168 / 4096;
#X obj 83 187 * 76.969;
#X msg 56 301 1 83.0894;
#X obj 116 451 -;
#X msg 116 429 4095 \$1;
#X obj 29 430 t f f;
#X obj 29 472 / 96;
#X obj 29 451 min 96;
#X obj 29 493 *;
#X obj 83 244 /;
#X obj 83 225 sin;
#X obj 83 206 t f f;
#X obj 275 39 table sinc 8192;
#X obj 275 58 table Isinc 8192;
#X obj 275 77 table Isinc2 4096;
#X obj 281 228 soundfiler;
#X msg 281 205 write isinc.wav Isinc2;
#X connect 1 0 2 0;
#X connect 2 0 14 0;
#X connect 2 1 0 1;
#X connect 3 0 20 0;
#X connect 4 0 3 0;
#X connect 6 0 4 0;
#X connect 6 1 13 0;
#X connect 7 0 12 0;
#X connect 8 0 9 0;
#X connect 9 0 23 0;
#X connect 9 1 22 0;
#X connect 11 0 26 1;
#X connect 12 0 17 0;
#X connect 12 1 6 0;
#X connect 13 0 1 0;
#X connect 14 0 18 0;
#X connect 15 0 11 0;
#X connect 16 0 5 0;
#X connect 17 0 8 0;
#X connect 18 0 19 0;
#X connect 19 0 29 0;
#X connect 20 0 16 0;
#X connect 21 0 10 1;
#X connect 22 0 21 0;
#X connect 23 0 25 0;
#X connect 23 1 15 0;
#X connect 24 0 26 0;
#X connect 25 0 24 0;
#X connect 26 0 10 0;
#X connect 27 0 0 0;
#X connect 28 0 27 0;
#X connect 29 0 28 0;
#X connect 29 1 27 1;
#X connect 34 0 33 0;
