#N canvas 131 51 838 967 10;
#X obj 24 349 ggee/shell;
#X msg 23 324 resetstm;
#X obj 24 371 print;
#X msg 189 276 /text WHATTHEFUCK;
#X obj 194 71 hradio 15 1 1 6 empty empty textsize 0 -12 0 20 -262144
-1 -1 2;
#X msg 198 141 /settextsize \$1;
#X obj 194 91 + 1;
#X msg 187 245 /text HELLO SKUNK;
#X obj 153 117 s \$0-textsize;
#X obj 132 422 print;
#X msg 178 413 /text \$1;
#X obj 178 435 s ocs;
#X obj 174 389 mrpeach/pipelist 10;
#X msg 171 362 97 13;
#X msg 209 194 /setcursor 0 0;
#X text 273 69 62535 is a nice color \, beige;
#N canvas 269 264 450 300 vumeter 0;
#X msg 55 50 /vumeter 4 4 4 4;
#X obj 55 72 s osc;
#X msg 61 10 /getknobs;
#X obj 92 271 s osc;
#X msg 173 244 /vumeter 70 100 35 35;
#X obj 111 193 pack f f f f;
#X obj 121 121 t b b b b;
#X obj 49 145 random 140;
#X obj 119 145 random 140;
#X obj 189 145 random 140;
#X obj 259 145 random 140;
#X msg 111 215 /vumeter \$1 \$2 \$3 \$4;
#X obj 183 64 tgl 15 0 empty empty empty 17 7 0 10 -262144 -1 -1 0
1;
#X obj 121 99 metro 100;
#X floatatom 345 129 5 0 0 0 - - -;
#X obj 348 107 snapshot~ 34;
#X obj 409 46 tgl 15 0 empty empty empty 17 7 0 10 -262144 -1 -1 0
1;
#X obj 327 264 s osc;
#X obj 344 161 int;
#X obj 338 46 +~ 1;
#X obj 337 67 *~ 70;
#X obj 349 205 pack f f f f;
#X msg 327 242 /vumeter \$1 \$2 \$3 \$4;
#X obj 338 24 osc~ 0.5;
#X obj 409 68 metro 50;
#X connect 0 0 1 0;
#X connect 2 0 1 0;
#X connect 4 0 3 0;
#X connect 5 0 11 0;
#X connect 6 0 7 0;
#X connect 6 1 8 0;
#X connect 6 2 9 0;
#X connect 6 3 10 0;
#X connect 7 0 5 0;
#X connect 8 0 5 1;
#X connect 9 0 5 2;
#X connect 10 0 5 3;
#X connect 11 0 3 0;
#X connect 12 0 13 0;
#X connect 13 0 6 0;
#X connect 14 0 18 0;
#X connect 15 0 14 0;
#X connect 16 0 24 0;
#X connect 18 0 21 3;
#X connect 18 0 21 2;
#X connect 18 0 21 1;
#X connect 18 0 21 0;
#X connect 19 0 20 0;
#X connect 20 0 15 0;
#X connect 21 0 22 0;
#X connect 22 0 17 0;
#X connect 23 0 19 0;
#X connect 24 0 15 0;
#X restore 82 213 pd vumeter;
#X obj 369 145 s osc;
#X msg 369 123 /oled/line 1 schunk;
#X msg 439 199 /oled/line 1 dunkgaro;
#X obj 439 221 s osc;
#X obj 425 146 t b;
#X obj 425 168 del 500;
#X msg 84 122 /bgfill 0;
#X obj 359 303 s osc;
#X msg 363 276 /oled/line 3 hello whats up my;
#X obj 440 348 s osc;
#X msg 440 326 /oled/line 4 3333.2 77.222 83483 2.4;
#X obj 409 549 s osc;
#X msg 347 409 /setbackground 0;
#X obj 347 431 s osc;
#X msg 411 493 /setcolor 65535;
#X msg 482 410 /oled/highlight 4 chunk chunk;
#N canvas 448 409 450 455 comport_stuff 1;
#X obj 265 16 inlet;
#X obj 206 142 mrpeach/packOSC;
#X obj 206 164 mrpeach/slipenc;
#X obj 206 186 comport;
#X obj 206 208 mrpeach/slipdec;
#X obj 206 230 mrpeach/unpackOSC;
#X msg 74 123 devicename /dev/ttyS1;
#X msg 78 160 baud 115200;
#X obj 68 41 loadbang;
#X msg 203 69 /hello;
#X obj 138 72 del 1000;
#X obj 246 104 r osc;
#X obj 135 346 print;
#X obj 69 386 print fuck;
#X obj 39 356 print;
#X obj 40 324 spigot;
#X obj 43 291 tgl 15 0 empty empty empty 17 7 0 10 -262144 -1 -1 0
1;
#X obj 36 248 r startprint;
#X obj 364 115 r packed;
#X obj 212 318 mrpeach/routeOSC /enc;
#X obj 212 340 send ENCODER;
#X obj 163 280 s returnOSC;
#X msg 298 77 pollintervall 1;
#X connect 0 0 1 0;
#X connect 1 0 2 0;
#X connect 2 0 3 0;
#X connect 3 0 4 0;
#X connect 4 0 5 0;
#X connect 5 0 15 0;
#X connect 5 0 19 0;
#X connect 5 0 21 0;
#X connect 6 0 3 0;
#X connect 7 0 3 0;
#X connect 8 0 6 0;
#X connect 8 0 7 0;
#X connect 8 0 10 0;
#X connect 9 0 1 0;
#X connect 10 0 9 0;
#X connect 11 0 1 0;
#X connect 15 0 14 0;
#X connect 16 0 15 1;
#X connect 17 0 16 0;
#X connect 18 0 2 0;
#X connect 19 0 20 0;
#X connect 22 0 3 0;
#X restore 84 165 pd comport_stuff;
#X obj 111 602 mrpeach/udpreceive 9922;
#X obj 110 650 print;
#X obj 110 625 mrpeach/unpackOSC;
#X obj 355 779 list-abs/list-nth;
#X obj 215 724 ggee/shell;
#X obj 285 746 t b b;
#X obj 134 781 bng 15 250 50 0 empty empty empty 17 7 0 10 -262144
-1 -1;
#X obj 134 803 list append;
#X obj 134 825 list trim;
#X obj 134 847 list length;
#X floatatom 134 869 5 0 0 0 - - -;
#X obj 277 792 t l;
#X msg 226 701 ls /root/patches;
#X obj 245 873 list;
#X obj 242 826 bng 15 250 50 0 empty empty empty 17 7 0 10 -262144
-1 -1;
#X floatatom 485 758 5 0 0 0 - - -;
#X obj 357 816 print;
#X obj 356 721 bng 15 250 50 0 empty empty empty 17 7 0 10 -262144
-1 -1;
#X obj 541 631 min;
#X floatatom 393 712 5 0 0 0 - - -;
#X obj 245 895 print \, . \, .;
#X obj 215 766 list prepend;
#X obj 493 824 list-abs/list-idx 2;
#N canvas 1760 51 838 967 lists 1;
#X obj 417 504 text get list-comp;
#X obj 126 387 text size list-comp;
#X obj 127 366 bng 15 250 50 0 empty empty empty 17 7 0 10 -262144
-1 -1;
#X floatatom 126 409 5 0 0 0 - - -;
#X floatatom 71 421 5 0 0 0 - - -;
#X obj 116 437 min;
#X obj 118 459 max 0;
#X floatatom 140 486 5 0 0 0 - - -;
#X floatatom 433 476 5 0 0 0 - - -;
#X obj 13 383 r encoder-index;
#X obj 355 704 list append;
#X msg 408 660 /oled/line \$1;
#X obj 479 884 s osc;
#X msg 422 360 0;
#X msg 451 332 1;
#X msg 512 358 0;
#X obj 461 395 int;
#X obj 495 393 + 1;
#X obj 485 460 sel 4;
#X obj 476 428 % 6;
#X obj 523 435 - 1;
#X msg 523 412 8;
#X obj 434 448 +;
#X floatatom 366 430 5 0 0 0 - - -;
#X obj 363 727 list trim;
#X text 554 418 lines on screen;
#X text 312 408 offset from beginning;
#X obj 526 388 loadbang;
#X obj 299 598 ==;
#X obj 434 601 !=;
#X obj 267 631 spigot;
#X obj 412 630 spigot;
#X msg 274 658 /oled/highlight \$1;
#N canvas 0 50 450 300 fill_tex 0;
#X obj 61 77 ggee/shell;
#X obj 6 171 list prepend;
#X msg 66 55 ls /root/patches;
#X obj 65 111 t b;
#X obj 268 210 text define -k list-comp;
#A set 1008 \; Additive Synth \; Analog Style \; Arpeggio Sampler \;
Arpeggio Synth \; BS FX PB \; Basic Poly \; Basic Sampler \; Beats
and Pieces \; CA Filter \; CZZ-Multi \; Children of Sample \; Chords
Roll \; Countdown Timer \; DJ Patch \; DJ Patch Record \; Distributor
\; Drone 1 \; Dropper \; Drummy \; EnvelopeFX \; Euclidean Rhythms
\; FunFX \; Genny 1 \; Genny HRando FX \; Granular Freezer \; Guitar2ARP
\; Guitar2Synth \; I Take Up \; IZAAAAAAAAAAAAAAAAAAAAAAC \; Jeraphy
\; LFO Delay \; Loop Jam Rec \; Metronome \; Midi File Sampler \; Midi
File Synth \; Nice Surprises \; Nice Surprises Poly \; Nori Grains
\; Nori Sampler \; Nori Sampler Mono \; Overloop \; PB HRando FX13
\; Partial Party \; Phase Vocoder \; Polybeats DRG32V \; Pow Pow's
Polybeats \; Punchy \; Punchy HRando FX \; Quad Delay \; Rampi \; Rampi
PB \; Recorder \; Rhodey \; Rhythm Delay Dist \; Sampler Style \; Sampler
Style Delay \; Sampler Style REC \; Segmenti \; Segmenti Arp \; Sine
Surprises \; Steppy Delay \; Stereo Rhythmicon \; Test \; Thery Scary
\; Tune D PB \; Tuned Delay \; Vocoder RL \; Waterfall Down \; Waterfall
Up \; Wepa! \; Zone \; arpeggio \; h Rando \; h Rando \;;
#X obj 55 223 text set list-comp;
#X floatatom 110 171 5 0 0 0 - - -;
#X obj 169 144 + 1;
#X obj 139 144 int;
#X msg 121 109 0;
#X obj 163 107 t b;
#X msg 160 166 -1;
#X obj 202 204 struct;
#X msg 68 20 loadbang;
#X connect 0 0 1 0;
#X connect 0 0 10 0;
#X connect 0 1 3 0;
#X connect 1 0 5 0;
#X connect 2 0 0 0;
#X connect 2 0 9 0;
#X connect 3 0 1 1;
#X connect 6 0 5 1;
#X connect 7 0 8 1;
#X connect 8 0 7 0;
#X connect 8 0 6 0;
#X connect 9 0 8 0;
#X connect 10 0 8 0;
#X connect 11 0 5 2;
#X connect 13 0 2 0;
#X restore 49 31 pd fill_tex;
#X obj 124 344 loadbang;
#X obj 143 594 >;
#X obj 143 620 sel 1;
#X obj 32 464 bng 15 250 50 0 empty empty empty 17 7 0 10 -262144 -1
-1;
#X obj 315 311 r offset;
#X obj 143 714 i;
#X msg 197 746 0;
#X obj 51 516 s listme;
#X obj 452 294 r listme;
#X obj 127 795 s offset;
#X obj 188 603 <;
#X obj 333 353 max 0;
#X obj 333 375 min 75;
#X obj 146 736 max 0;
#X obj 146 758 min 75;
#X obj 284 449 s offset1;
#N canvas 0 50 450 300 move 0;
#X restore 31 859 pd move;
#X obj 188 622 sel 1;
#X obj 196 714 +;
#X msg 139 670 1;
#X obj 102 648 t b b;
#X obj 188 641 t b b;
#X msg 217 666 -1;
#X obj 182 72 r ENCODER;
#X obj 165 140 sel 1;
#X obj 188 267 i;
#X msg 242 299 0;
#X obj 191 289 max 0;
#X obj 191 311 min 75;
#X obj 241 267 +;
#X msg 184 223 1;
#X msg 262 219 -1;
#X obj 210 142 sel -1;
#X floatatom 191 333 5 0 0 0 - - -;
#X obj 51 494 del 8;
#X obj 147 528 mrpeach/pipelist 1;
#X obj 147 201 t b b b;
#X obj 233 194 t b b b;
#N canvas 103 138 780 449 bundlestuff 0;
#X obj 196 78 bng 15 250 50 0 empty empty empty 17 7 0 10 -262144 -1
-1;
#X obj 196 100 t b b b b b b b b, f 47;
#X msg 196 172 ];
#X msg 475 169 [;
#X msg 235 135 /oled/line 0 chonk;
#X msg 275 159 /oled/line 1 chunk;
#X msg 316 185 /oled/line 2 chonk;
#X msg 356 209 /oled/line 3 chunk;
#X msg 395 235 /oled/line 4 chonk;
#X msg 435 259 /oled/line 5 chunk;
#X obj 339 343 mrpeach/packOSC;
#X text 217 51 apparently bundles are sent in brackets;
#X obj 339 365 s packed;
#X connect 0 0 1 0;
#X connect 1 0 2 0;
#X connect 1 1 4 0;
#X connect 1 2 5 0;
#X connect 1 3 6 0;
#X connect 1 4 7 0;
#X connect 1 5 8 0;
#X connect 1 6 9 0;
#X connect 1 7 3 0;
#X connect 2 0 10 0;
#X connect 3 0 10 0;
#X connect 4 0 10 0;
#X connect 5 0 10 0;
#X connect 6 0 10 0;
#X connect 7 0 10 0;
#X connect 8 0 10 0;
#X connect 9 0 10 0;
#X connect 10 0 12 0;
#X restore 409 58 pd bundlestuff;
#N canvas 2464 287 450 300 menuthing 1;
#X obj 111 100 s osc;
#X obj 228 148 s osc;
#X msg 38 66 /bgfill 0;
#X msg 228 126 /oled/menu hell || ^ on ^ ^ earf;
#X msg 112 64 /oled/menu im a small child ^ with a tiny plan ^ and
a strong heart ^ and a thoughtless ^ matn;
#X connect 2 0 0 0;
#X connect 3 0 1 0;
#X connect 4 0 0 0;
#X restore 409 139 pd menuthing;
#X obj 577 521 t b;
#X obj 568 708 list append;
#X msg 655 641 ^;
#X obj 653 618 t b;
#X obj 564 770 list prepend;
#X msg 667 748 bang;
#X obj 660 785 t l;
#X obj 478 832 list append;
#X msg 450 806 /oled/menu;
#X obj 478 859 list trim;
#X obj 490 761 del 2;
#X obj 608 293 metro 200;
#X obj 609 261 tgl 15 0 empty empty empty 17 7 0 10 -262144 -1 -1 0
1;
#X obj 526 643 mrpeach/pipelist;
#X obj 678 708 del 1;
#X obj 381 860 print CHONK;
#X obj 454 363 metro 1;
#X connect 0 0 10 1;
#X connect 0 0 77 0;
#X connect 0 0 87 0;
#X connect 1 0 3 0;
#X connect 2 0 1 0;
#X connect 3 0 5 1;
#X connect 4 0 5 0;
#X connect 4 0 68 0;
#X connect 5 0 6 0;
#X connect 6 0 7 0;
#X connect 7 0 28 1;
#X connect 7 0 29 1;
#X connect 7 0 69 0;
#X connect 8 0 0 0;
#X connect 8 0 29 0;
#X connect 8 0 28 0;
#X connect 8 0 35 1;
#X connect 8 0 44 1;
#X connect 9 0 4 0;
#X connect 10 0 24 0;
#X connect 11 0 10 0;
#X connect 13 0 90 0;
#X connect 14 0 15 0;
#X connect 14 0 90 0;
#X connect 15 0 16 1;
#X connect 16 0 17 0;
#X connect 16 0 19 0;
#X connect 17 0 16 1;
#X connect 18 0 13 0;
#X connect 18 0 74 0;
#X connect 19 0 18 0;
#X connect 19 0 22 0;
#X connect 19 0 31 0;
#X connect 19 0 30 0;
#X connect 20 0 18 1;
#X connect 21 0 19 1;
#X connect 21 0 20 0;
#X connect 22 0 8 0;
#X connect 23 0 22 1;
#X connect 23 0 49 0;
#X connect 27 0 21 0;
#X connect 28 0 30 1;
#X connect 29 0 31 1;
#X connect 30 0 32 0;
#X connect 31 0 11 0;
#X connect 32 0 10 0;
#X connect 34 0 2 0;
#X connect 35 0 36 0;
#X connect 36 0 54 0;
#X connect 37 0 4 0;
#X connect 38 0 45 0;
#X connect 39 0 47 0;
#X connect 39 0 43 0;
#X connect 40 0 39 1;
#X connect 42 0 14 0;
#X connect 44 0 51 0;
#X connect 45 0 46 0;
#X connect 46 0 23 0;
#X connect 47 0 48 0;
#X connect 48 0 52 0;
#X connect 51 0 55 0;
#X connect 52 0 39 1;
#X connect 53 0 52 1;
#X connect 54 0 39 0;
#X connect 54 1 53 0;
#X connect 55 0 39 0;
#X connect 55 1 56 0;
#X connect 56 0 52 1;
#X connect 57 0 58 0;
#X connect 57 0 66 0;
#X connect 58 0 70 0;
#X connect 59 0 61 0;
#X connect 60 0 59 1;
#X connect 61 0 62 0;
#X connect 62 0 63 0;
#X connect 62 0 67 0;
#X connect 63 0 59 1;
#X connect 64 0 63 1;
#X connect 65 0 63 1;
#X connect 66 0 71 0;
#X connect 67 0 4 0;
#X connect 68 0 41 0;
#X connect 69 0 35 0;
#X connect 69 0 44 0;
#X connect 70 0 59 0;
#X connect 70 1 63 0;
#X connect 70 2 64 0;
#X connect 71 0 59 0;
#X connect 71 1 63 0;
#X connect 71 2 65 0;
#X connect 74 0 88 0;
#X connect 75 0 78 0;
#X connect 76 0 75 1;
#X connect 77 0 76 0;
#X connect 78 0 80 0;
#X connect 78 0 81 1;
#X connect 79 0 78 1;
#X connect 79 0 84 0;
#X connect 80 0 78 1;
#X connect 81 0 83 0;
#X connect 81 0 89 0;
#X connect 82 0 81 0;
#X connect 83 0 12 0;
#X connect 84 0 82 0;
#X connect 85 0 14 0;
#X connect 86 0 85 0;
#X connect 87 0 75 0;
#X connect 88 0 79 0;
#X connect 90 0 16 0;
#X restore 545 84 pd lists;
#X msg 468 517 /setbackground 0;
#X obj 465 462 loadbang;
#N canvas 538 293 450 300 knobs 1;
#X obj 91 67 tgl 15 0 empty empty empty 17 7 0 10 -262144 -1 -1 0 1
;
#X obj 91 89 metro 200;
#X msg 91 111 /getknobs;
#X obj 91 133 s osc;
#X obj 182 56 r returnOSC;
#X obj 182 78 mrpeach/routeOSC /knobs;
#X obj 183 103 unpack f f f f f, f 35;
#X floatatom 183 130 5 0 0 0 - - -;
#X floatatom 234 131 5 0 0 0 - - -;
#X floatatom 286 130 5 0 0 0 - - -;
#X floatatom 337 129 5 0 0 0 - - -;
#X floatatom 390 129 5 0 0 0 - - -;
#X connect 0 0 1 0;
#X connect 1 0 2 0;
#X connect 2 0 3 0;
#X connect 4 0 5 0;
#X connect 5 0 6 0;
#X connect 6 0 7 0;
#X connect 6 1 8 0;
#X connect 6 2 9 0;
#X connect 6 3 10 0;
#X connect 6 4 11 0;
#X restore 599 156 pd knobs;
#N canvas 1681 51 958 997 keys 0;
#X obj 33 67 mrpeach/routeOSC /key;
#X obj 33 89 print;
#X obj 33 43 r returnOSC;
#X obj 64 499 tgl 15 0 empty empty empty 17 7 0 10 -262144 -1 -1 0
1;
#X obj 89 499 tgl 15 0 empty empty empty 17 7 0 10 -262144 -1 -1 0
1;
#X obj 114 499 tgl 15 0 empty empty empty 17 7 0 10 -262144 -1 -1 0
1;
#X obj 139 499 tgl 15 0 empty empty empty 17 7 0 10 -262144 -1 -1 100
1;
#X obj 164 499 tgl 15 0 empty empty empty 17 7 0 10 -262144 -1 -1 100
1;
#X obj 189 499 tgl 15 0 empty empty empty 17 7 0 10 -262144 -1 -1 0
1;
#X obj 214 499 tgl 15 0 empty empty empty 17 7 0 10 -262144 -1 -1 0
1;
#X obj 239 499 tgl 15 0 empty empty empty 17 7 0 10 -262144 -1 -1 100
1;
#X obj 264 499 tgl 15 0 empty empty empty 17 7 0 10 -262144 -1 -1 100
1;
#X obj 289 499 tgl 15 0 empty empty empty 17 7 0 10 -262144 -1 -1 100
1;
#X obj 314 499 tgl 15 0 empty empty empty 17 7 0 10 -262144 -1 -1 0
1;
#X obj 339 499 tgl 15 0 empty empty empty 17 7 0 10 -262144 -1 -1 0
1;
#X obj 364 499 tgl 15 0 empty empty empty 17 7 0 10 -262144 -1 -1 0
1;
#X obj 389 499 tgl 15 0 empty empty empty 17 7 0 10 -262144 -1 -1 0
1;
#X obj 414 499 tgl 15 0 empty empty empty 17 7 0 10 -262144 -1 -1 0
1;
#X obj 439 499 tgl 15 0 empty empty empty 17 7 0 10 -262144 -1 -1 0
1;
#X obj 102 479 tgl 15 0 empty empty empty 17 7 0 10 -262144 -1 -1 0
1;
#X obj 127 479 tgl 15 0 empty empty empty 17 7 0 10 -262144 -1 -1 100
1;
#X obj 177 479 tgl 15 0 empty empty empty 17 7 0 10 -262144 -1 -1 100
1;
#X obj 202 479 tgl 15 0 empty empty empty 17 7 0 10 -262144 -1 -1 0
1;
#X obj 227 479 tgl 15 0 empty empty empty 17 7 0 10 -262144 -1 -1 0
1;
#X obj 75 394 route 0 1 2 3 4 5 6 7 8 9 10 11 12 500, f 32;
#X obj 282 396 route 14 15 16 17 18 19 20 21 22 23 24 25 26, f 32
;
#X obj 277 479 tgl 15 0 empty empty empty 17 7 0 10 -262144 -1 -1 100
1;
#X obj 302 479 tgl 15 0 empty empty empty 17 7 0 10 -262144 -1 -1 0
1;
#X obj 352 479 tgl 15 0 empty empty empty 17 7 0 10 -262144 -1 -1 0
1;
#X obj 377 479 tgl 15 0 empty empty empty 17 7 0 10 -262144 -1 -1 0
1;
#X obj 402 479 tgl 15 0 empty empty empty 17 7 0 10 -262144 -1 -1 0
1;
#X obj 464 499 tgl 15 0 empty empty empty 17 7 0 10 -262144 -1 -1 0
1;
#X obj 347 298 route 27 28 29 30 31, f 17;
#X obj 334 338 tgl 15 0 empty empty empty 17 7 0 10 -262144 -1 -1 0
1;
#X obj 359 338 tgl 15 0 empty empty empty 17 7 0 10 -262144 -1 -1 0
1;
#X obj 384 338 tgl 15 0 empty empty empty 17 7 0 10 -262144 -1 -1 0
1;
#X obj 409 338 tgl 15 0 empty empty empty 17 7 0 10 -262144 -1 -1 0
1;
#X obj 434 338 tgl 15 0 empty empty empty 17 7 0 10 -262144 -1 -1 0
1;
#X obj 343 168 mrpeach/pipelist;
#X obj 105 220 route 32 33 34 35 36 37 38, f 30;
#X obj 104 258 tgl 15 0 empty empty empty 17 7 0 10 -262144 -1 -1 0
1;
#X obj 129 258 tgl 15 0 empty empty empty 17 7 0 10 -262144 -1 -1 0
1;
#X obj 154 258 tgl 15 0 empty empty empty 17 7 0 10 -262144 -1 -1 0
1;
#X obj 179 258 tgl 15 0 empty empty empty 17 7 0 10 -262144 -1 -1 0
1;
#X obj 204 258 tgl 15 0 empty empty empty 17 7 0 10 -262144 -1 -1 0
1;
#X obj 229 258 tgl 15 0 empty empty empty 17 7 0 10 -262144 -1 -1 0
1;
#X obj 254 258 tgl 15 0 empty empty empty 17 7 0 10 -262144 -1 -1 0
1;
#X obj 105 305 route 40 41 42 43 44 45 46 47 39;
#X obj 94 348 tgl 15 0 empty empty empty 17 7 0 10 -262144 -1 -1 0
1;
#X obj 119 348 tgl 15 0 empty empty empty 17 7 0 10 -262144 -1 -1 0
1;
#X obj 144 348 tgl 15 0 empty empty empty 17 7 0 10 -262144 -1 -1 0
1;
#X obj 169 348 tgl 15 0 empty empty empty 17 7 0 10 -262144 -1 -1 0
1;
#X obj 194 348 tgl 15 0 empty empty empty 17 7 0 10 -262144 -1 -1 0
1;
#X obj 219 348 tgl 15 0 empty empty empty 17 7 0 10 -262144 -1 -1 0
1;
#X obj 244 348 tgl 15 0 empty empty empty 17 7 0 10 -262144 -1 -1 0
1;
#X obj 269 348 tgl 15 0 empty empty empty 17 7 0 10 -262144 -1 -1 0
1;
#X obj 294 348 tgl 15 0 empty empty empty 17 7 0 10 -262144 -1 -1 0
1;
#X connect 0 0 1 0;
#X connect 0 0 24 0;
#X connect 0 0 38 0;
#X connect 0 0 39 0;
#X connect 0 0 47 0;
#X connect 2 0 0 0;
#X connect 24 0 3 0;
#X connect 24 1 4 0;
#X connect 24 2 19 0;
#X connect 24 3 5 0;
#X connect 24 4 20 0;
#X connect 24 5 6 0;
#X connect 24 6 7 0;
#X connect 24 7 21 0;
#X connect 24 8 8 0;
#X connect 24 9 22 0;
#X connect 24 10 9 0;
#X connect 24 11 23 0;
#X connect 24 12 10 0;
#X connect 24 13 11 0;
#X connect 24 14 25 0;
#X connect 25 0 26 0;
#X connect 25 1 12 0;
#X connect 25 2 27 0;
#X connect 25 3 13 0;
#X connect 25 4 14 0;
#X connect 25 5 28 0;
#X connect 25 6 15 0;
#X connect 25 7 29 0;
#X connect 25 8 16 0;
#X connect 25 9 30 0;
#X connect 25 10 17 0;
#X connect 25 11 18 0;
#X connect 25 12 31 0;
#X connect 32 0 33 0;
#X connect 32 1 34 0;
#X connect 32 2 35 0;
#X connect 32 3 36 0;
#X connect 32 4 37 0;
#X connect 38 0 32 0;
#X connect 39 0 40 0;
#X connect 39 1 41 0;
#X connect 39 2 42 0;
#X connect 39 3 43 0;
#X connect 39 4 44 0;
#X connect 39 5 45 0;
#X connect 39 6 46 0;
#X connect 47 0 48 0;
#X connect 47 1 49 0;
#X connect 47 2 50 0;
#X connect 47 3 51 0;
#X connect 47 4 52 0;
#X connect 47 5 53 0;
#X connect 47 6 54 0;
#X connect 47 7 55 0;
#X connect 47 8 56 0;
#X restore 616 117 pd keys;
#X connect 0 0 2 0;
#X connect 1 0 0 0;
#X connect 4 0 6 0;
#X connect 5 0 33 0;
#X connect 6 0 8 0;
#X connect 6 0 5 0;
#X connect 10 0 11 0;
#X connect 12 0 9 0;
#X connect 12 0 10 0;
#X connect 13 0 12 0;
#X connect 18 0 17 0;
#X connect 18 0 21 0;
#X connect 19 0 20 0;
#X connect 21 0 22 0;
#X connect 22 0 19 0;
#X connect 23 0 33 0;
#X connect 25 0 24 0;
#X connect 27 0 26 0;
#X connect 29 0 30 0;
#X connect 31 0 28 0;
#X connect 32 0 30 0;
#X connect 34 0 36 0;
#X connect 36 0 35 0;
#X connect 37 0 50 0;
#X connect 38 0 55 0;
#X connect 38 1 39 0;
#X connect 39 1 55 1;
#X connect 40 0 41 0;
#X connect 41 0 42 0;
#X connect 41 0 47 1;
#X connect 42 0 43 0;
#X connect 43 0 44 0;
#X connect 45 0 55 1;
#X connect 46 0 38 0;
#X connect 47 0 37 0;
#X connect 47 0 54 0;
#X connect 48 0 47 0;
#X connect 49 0 37 1;
#X connect 51 0 37 0;
#X connect 53 0 37 0;
#X connect 55 0 45 0;
#X connect 55 0 41 1;
#X connect 58 0 28 0;
#X connect 59 0 31 0;
#X connect 59 0 58 0;
