#N canvas 0 0 590 490 10;
#X obj 190 141 gemnotes_counter;
#X floatatom 23 209 5 0 0 3 offset - -;
#X floatatom 62 209 5 0 0 3 rhythm - -;
#X floatatom 102 210 5 0 0 3 duration - -;
#X floatatom 158 210 5 0 0 3 grouplen - -;
#X floatatom 212 210 5 0 0 3 groupcount - -;
#X floatatom 290 207 5 0 0 3 rest_offset - -;
#X floatatom 361 208 5 0 0 3 rest_rhythm - -;
#X obj 259 173 tgl 15 0 empty empty beam -2 21 0 10 -262144 -1 -1 0
1;
#X obj 236 173 tgl 15 0 empty empty tie -2 21 0 10 -262144 -1 -1 0
1;
#X obj 401 190 bng 15 250 50 0 empty empty newbar -3 21 0 10 -262144
-1 -1;
#X obj 116 36 bng 15 250 50 0 empty empty empty 17 7 0 10 -262144 -1
-1;
#X obj 176 39 f;
#X floatatom 191 24 5 0 0 0 - - -;
#X obj 176 22 bng 15 250 50 0 empty empty empty 17 7 0 10 -262144 -1
-1;
#X msg 245 37 bar 4 4 4 16;
#X msg 258 57 bar 6 8 6 16 4 16 2 16;
#X msg 249 91 step 1;
#X msg 314 93 step 2;
#X msg 362 94 allstep 0.11;
#X msg 363 115 allstep 0.18;
#X obj 97 281 cnv 15 300 150 empty empty gemnotes_milestones 20 12
0 14 -204800 -13330 0;
#X text 123 309 Phase 1: build prototype objects.;
#X text 123 327 Phase 2: build prototype objectmakers;
#X text 124 345 Phase 3: build gemnotes_counter;
#X text 124 364 Phase 4: Implement and debug counter object;
#X text 125 382 Phase 5: build and link to score translator;
#X text 125 399 Phase 6: rehearse and perform Islands 1;
#X obj 103 309 tgl 15 1 empty empty empty 17 7 0 10 -262144 -1 -1 1
1;
#X obj 103 327 tgl 15 1 empty empty empty 17 7 0 10 -262144 -1 -1 1
1;
#X obj 103 345 tgl 15 1 empty empty empty 17 7 0 10 -262144 -1 -1 1
1;
#X obj 103 363 tgl 15 0 empty empty empty 17 7 0 10 -262144 -1 -1 0
1;
#X obj 103 381 tgl 15 0 empty empty empty 17 7 0 10 -262144 -1 -1 0
1;
#X obj 103 399 tgl 15 0 empty empty empty 17 7 0 10 -262144 -1 -1 0
1;
#X text 406 345 September - December 2010;
#X connect 0 0 1 0;
#X connect 0 1 2 0;
#X connect 0 2 3 0;
#X connect 0 3 4 0;
#X connect 0 4 5 0;
#X connect 0 5 9 0;
#X connect 0 6 8 0;
#X connect 0 7 6 0;
#X connect 0 8 7 0;
#X connect 0 9 10 0;
#X connect 11 0 0 0;
#X connect 12 0 0 0;
#X connect 13 0 12 1;
#X connect 14 0 12 0;
#X connect 15 0 0 0;
#X connect 16 0 0 0;
#X connect 17 0 0 0;
#X connect 18 0 0 0;
#X connect 19 0 0 0;
#X connect 20 0 0 0;
