#N canvas 233 199 666 506 10;
#X declare -lib jackx;
#X obj 77 194 jack-connect;
#X msg 47 68 c;
#X floatatom 78 237 5 0 0 0 - - -;
#X msg 67 18 connect;
#X msg 184 44 toggle;
#X msg 178 82 symbol alsa_pcm;
#X msg 215 127 symbol pure_data_0;
#X msg 79 157 query;
#X msg 227 153 symbol output0;
#X msg 199 103 symbol playback_3;
#X msg 317 8 bang;
#X msg 382 6 0;
#X obj 346 30 metro 50;
#X obj 354 345 jack-ports;
#X msg 365 263 bang;
#X msg 443 271 input pure_data.*;
#X msg 451 225 output;
#X msg 475 298 pure_data.*;
#X msg 523 323 pure.* output;
#X msg 415 175 physical output .*[34].*;
#X obj 533 22 import jackx;
#X symbolatom 529 425 10 0 0 0 - - -;
#X symbolatom 412 446 30 0 0 0 - - -;
#X obj 412 401 unpack symbol symbol;
#X obj 420 376 print INPUTS;
#X symbolatom 329 425 10 0 0 0 - - -;
#X symbolatom 212 446 30 0 0 0 - - -;
#X obj 212 401 unpack symbol symbol;
#X obj 318 376 print OUTPUTS;
#X connect 0 0 2 0;
#X connect 1 0 0 0;
#X connect 3 0 0 0;
#X connect 4 0 0 0;
#X connect 5 0 0 3;
#X connect 6 0 0 1;
#X connect 7 0 0 0;
#X connect 8 0 0 2;
#X connect 9 0 0 4;
#X connect 10 0 12 0;
#X connect 11 0 12 0;
#X connect 12 0 4 0;
#X connect 13 0 27 0;
#X connect 13 0 28 0;
#X connect 13 1 23 0;
#X connect 13 1 24 0;
#X connect 14 0 13 0;
#X connect 15 0 13 0;
#X connect 16 0 13 0;
#X connect 17 0 13 0;
#X connect 18 0 13 0;
#X connect 19 0 13 0;
#X connect 23 0 22 0;
#X connect 23 1 21 0;
#X connect 27 0 26 0;
#X connect 27 1 25 0;
