#N canvas 10 10 200 200 10;
#N canvas 20 20 420 300 META 0;
#X text 10 10 META this is a prototype of a libdir meta file;
#X text 10 10 NAME iemgui;
#X text 10 10 AUTHOR Thomas Musil;
#X text 10 10 DESCRIPTION some more GUI objects for PD;
#X text 10 10 LICENSE GNU GPL;
#X text 10 10 VERSION ;
#X restore 10 10 pd META;
