#N canvas 1876 147 1082 740 10;
#N canvas 2802 180 619 793 serial_connection 0;
#X obj 283 66 loadbang;
#X msg 281 140 devicename /dev/ttyS1;
#X obj 100 171 comport;
#X msg 280 159 baud 115200;
#X obj 100 193 mrpeach/slipdec;
#X obj 100 215 mrpeach/unpackOSC;
#X obj 86 70 inlet;
#X obj 86 92 mrpeach/packOSC;
#X obj 86 114 mrpeach/slipenc;
#X obj 97 246 outlet;
#X obj 265 673 ggee/shell;
#X msg 265 650 resetstm;
#X obj 217 359 mrpeach/routeOSC /hello;
#X obj 225 393 select 0 1;
#X obj 152 478 metro 100;
#X obj 156 457 tgl 15 0 empty empty empty 17 7 0 10 -262144 -1 -1 0
1;
#X msg 130 523 /hello;
#X obj 258 424 bng 15 250 50 0 empty empty empty 17 7 0 10 -262144
-1 -1;
#X obj 280 507 f;
#X obj 312 507 + 1;
#X floatatom 280 529 5 0 0 0 - - -, f 5;
#X obj 155 429 del 50;
#X obj 156 406 loadbang;
#X msg 262 457 0;
#X obj 280 548 > 3;
#X obj 273 574 change;
#X obj 272 610 tgl 15 0 empty empty empty 17 7 0 10 -262144 -1 -1 0
1;
#X obj 264 629 metro 500;
#X msg 281 96 del 20;
#X text 212 319 keepalive insurance VVV;
#X obj 166 254 s oscIn;
#X connect 0 0 28 0;
#X connect 1 0 2 0;
#X connect 2 0 4 0;
#X connect 3 0 2 0;
#X connect 4 0 5 0;
#X connect 5 0 9 0;
#X connect 5 0 12 0;
#X connect 5 0 30 0;
#X connect 6 0 7 0;
#X connect 7 0 8 0;
#X connect 8 0 2 0;
#X connect 11 0 10 0;
#X connect 12 0 13 0;
#X connect 13 1 17 0;
#X connect 14 0 16 0;
#X connect 14 0 18 0;
#X connect 15 0 14 0;
#X connect 16 0 7 0;
#X connect 17 0 23 0;
#X connect 18 0 19 0;
#X connect 18 0 20 0;
#X connect 19 0 18 1;
#X connect 20 0 24 0;
#X connect 21 0 15 0;
#X connect 21 0 23 0;
#X connect 22 0 21 0;
#X connect 23 0 18 0;
#X connect 23 0 26 0;
#X connect 23 0 15 0;
#X connect 24 0 25 0;
#X connect 25 0 26 0;
#X connect 26 0 27 0;
#X connect 27 0 11 0;
#X connect 28 0 1 0;
#X connect 28 0 3 0;
#X restore 153 164 pd serial_connection;
#X msg 118 57 /hello;
#X msg 187 72 /disablemux;
#X msg 185 52 /enablemux;
#X msg 223 100 /getknobs;
#X obj 153 186 mrpeach/routeOSC /hello /knobs /key /enc /encbut;
#X obj 219 219 unpack f f f f f f;
#X floatatom 219 241 5 0 0 0 - - -, f 5;
#X floatatom 243 262 5 0 0 0 - - -, f 5;
#X floatatom 268 281 5 0 0 0 - - -, f 5;
#X floatatom 292 241 5 0 0 0 - - -, f 5;
#X floatatom 317 260 5 0 0 0 - - -, f 5;
#X floatatom 352 231 5 0 0 0 - - -, f 5;
#X floatatom 419 227 5 0 0 0 - - -, f 5;
#N canvas 2499 371 450 300 send_to_udp 1;
#X obj 117 236 == 0;
#X obj 117 258 metro 100;
#X obj 53 210 t b;
#X msg 342 182 disconnect;
#X obj 203 127 loadbang;
#X text 203 154 assumes python listening;
#X obj 133 18 inlet;
#X obj 23 58 t b l;
#X msg 23 86 send;
#X obj 23 111 list append;
#X obj 23 133 list trim;
#X obj 22 160 print;
#X obj 23 36 list;
#X obj 126 86 mrpeach/packOSC;
#X obj 117 214 mrpeach/udpsend;
#X msg 157 182 connect localhost 4001;
#X obj 190 29 r oscOut;
#X msg 318 48 /chimchim 3;
#X connect 0 0 1 0;
#X connect 1 0 2 0;
#X connect 2 0 15 0;
#X connect 3 0 14 0;
#X connect 4 0 15 0;
#X connect 6 0 13 0;
#X connect 7 0 8 0;
#X connect 7 1 9 1;
#X connect 8 0 9 0;
#X connect 9 0 10 0;
#X connect 10 0 11 0;
#X connect 12 0 7 0;
#X connect 13 0 14 0;
#X connect 14 0 0 0;
#X connect 15 0 14 0;
#X connect 16 0 13 0;
#X connect 17 0 13 0;
#X restore 473 156 pd send_to_udp;
#N canvas 2642 569 276 190 receive_udp 0;
#X obj 93 95 net/udpreceive;
#X msg 94 71 port 4000;
#X obj 93 117 mrpeach/unpackOSC;
#X obj 93 139 s oscIn;
#X obj 98 43 loadbang;
#X connect 0 0 2 0;
#X connect 1 0 0 0;
#X connect 2 0 3 0;
#X connect 4 0 1 0;
#X restore 591 158 pd receive_udp;
#N canvas 3014 264 450 300 LED 0;
#X obj 76 91 r led;
#X obj 76 113 % 8;
#X obj 150 94 r quitting;
#X msg 150 116 0;
#X msg 48 207 0;
#X msg 87 208 4;
#X msg 129 208 5;
#X msg 165 207 1;
#X msg 214 209 3;
#X msg 261 203 2;
#X msg 303 206 6;
#X msg 347 210 7;
#X obj 71 172 sel 0 1 2 3 4 5 6 7, f 28;
#X msg 59 252 /led \$1;
#X obj 59 274 s oscOut;
#X connect 0 0 1 0;
#X connect 1 0 12 0;
#X connect 2 0 3 0;
#X connect 3 0 12 0;
#X connect 4 0 13 0;
#X connect 5 0 13 0;
#X connect 6 0 13 0;
#X connect 7 0 13 0;
#X connect 8 0 13 0;
#X connect 9 0 13 0;
#X connect 10 0 13 0;
#X connect 11 0 13 0;
#X connect 12 0 4 0;
#X connect 12 1 5 0;
#X connect 12 2 6 0;
#X connect 12 3 7 0;
#X connect 12 4 8 0;
#X connect 12 5 9 0;
#X connect 12 6 10 0;
#X connect 12 7 11 0;
#X connect 13 0 14 0;
#X restore 593 182 pd LED;
#N canvas 2071 291 795 255 SCREEN 0;
#X obj 51 22 r screenLine1;
#X obj 51 44 list;
#X obj 51 66 t b l;
#X msg 13 113 /oled/line/1;
#X obj 61 138 list append;
#X obj 61 160 list trim;
#X obj 61 183 s oscOut;
#X obj 191 44 list;
#X obj 191 66 t b l;
#X obj 201 138 list append;
#X obj 201 160 list trim;
#X obj 201 183 s oscOut;
#X msg 153 113 /oled/line/2;
#X obj 191 22 r screenLine2;
#X obj 341 44 list;
#X obj 341 66 t b l;
#X obj 351 138 list append;
#X obj 351 160 list trim;
#X obj 351 183 s oscOut;
#X obj 481 44 list;
#X obj 481 66 t b l;
#X obj 491 138 list append;
#X obj 491 160 list trim;
#X obj 491 183 s oscOut;
#X obj 341 22 r screenLine3;
#X obj 481 22 r screenLine4;
#X msg 303 113 /oled/line/3;
#X msg 444 114 /oled/line/4;
#X obj 631 44 list;
#X obj 631 66 t b l;
#X obj 641 138 list append;
#X obj 641 160 list trim;
#X obj 641 183 s oscOut;
#X obj 631 22 r screenLine5;
#X msg 594 114 /oled/line/5;
#X connect 0 0 1 0;
#X connect 1 0 2 0;
#X connect 2 0 3 0;
#X connect 2 1 4 1;
#X connect 3 0 4 0;
#X connect 4 0 5 0;
#X connect 5 0 6 0;
#X connect 7 0 8 0;
#X connect 8 0 12 0;
#X connect 8 1 9 1;
#X connect 9 0 10 0;
#X connect 10 0 11 0;
#X connect 12 0 9 0;
#X connect 13 0 7 0;
#X connect 14 0 15 0;
#X connect 15 0 26 0;
#X connect 15 1 16 1;
#X connect 16 0 17 0;
#X connect 17 0 18 0;
#X connect 19 0 20 0;
#X connect 20 0 27 0;
#X connect 20 1 21 1;
#X connect 21 0 22 0;
#X connect 22 0 23 0;
#X connect 24 0 14 0;
#X connect 25 0 19 0;
#X connect 26 0 16 0;
#X connect 27 0 21 0;
#X connect 28 0 29 0;
#X connect 29 0 34 0;
#X connect 29 1 30 1;
#X connect 30 0 31 0;
#X connect 31 0 32 0;
#X connect 33 0 28 0;
#X connect 34 0 30 0;
#X restore 644 183 pd SCREEN;
#N canvas 2315 566 450 300 QUIT 0;
#X obj 97 75 r oscIn;
#X obj 97 97 mrpeach/routeOSC /quitpd;
#X obj 97 119 sel 1;
#X obj 97 141 t b b;
#X obj 97 163 del 100;
#X msg 97 185 \; pd quit;
#X obj 181 170 s quitting;
#X connect 0 0 1 0;
#X connect 1 0 2 0;
#X connect 2 0 3 0;
#X connect 3 0 4 0;
#X connect 3 1 6 0;
#X connect 4 0 5 0;
#X restore 593 240 pd QUIT;
#N canvas 2172 173 481 322 KEYS 0;
#X obj 118 71 r oscIn;
#X obj 118 93 mrpeach/routeOSC /key;
#X obj 118 115 route 0;
#X obj 118 137 sel 100;
#X msg 118 159 1;
#X obj 40 213 s auxraw;
#X obj 113 215 s aux;
#X msg 164 161 0;
#X obj 242 142 unpack;
#X floatatom 242 164 5 0 0 0 - - -, f 5;
#X floatatom 291 165 5 0 0 0 - - -, f 5;
#X obj 242 183 + 59;
#X obj 242 205 pack;
#X obj 242 227 s notes;
#X obj 291 184 / 1;
#X obj 312 232 s notesRaw;
#X connect 0 0 1 0;
#X connect 1 0 2 0;
#X connect 2 0 3 0;
#X connect 2 1 8 0;
#X connect 3 0 4 0;
#X connect 3 1 7 0;
#X connect 4 0 5 0;
#X connect 4 0 6 0;
#X connect 7 0 5 0;
#X connect 7 0 6 0;
#X connect 8 0 9 0;
#X connect 8 1 10 0;
#X connect 9 0 11 0;
#X connect 10 0 14 0;
#X connect 11 0 12 0;
#X connect 12 0 13 0;
#X connect 12 0 15 0;
#X connect 14 0 12 1;
#X restore 591 212 pd KEYS;
#N canvas 2136 273 838 266 KNOBS 0;
#X obj 93 42 r oscIn;
#X obj 93 64 routeOSC /knobs;
#X obj 94 86 unpack 0 0 0 0 0 0, f 85;
#X obj 93 136 change -1;
#X obj 15 115 s knob1Raw;
#X obj 93 114 >> 2;
#X floatatom 93 180 5 0 0 0 - - -, f 5;
#X obj 93 199 s knob1;
#X obj 93 158 / 1024;
#X obj 213 136 change -1;
#X obj 213 114 >> 2;
#X floatatom 213 180 5 0 0 0 - - -, f 5;
#X obj 213 158 / 1024;
#X obj 135 115 s knob2Raw;
#X obj 213 199 s knob2;
#X obj 333 136 change -1;
#X obj 333 114 >> 2;
#X floatatom 333 180 5 0 0 0 - - -, f 5;
#X obj 333 158 / 1024;
#X obj 453 136 change -1;
#X obj 453 114 >> 2;
#X floatatom 453 180 5 0 0 0 - - -, f 5;
#X obj 453 158 / 1024;
#X obj 255 115 s knob3Raw;
#X obj 333 199 s knob3;
#X obj 375 115 s knob4Raw;
#X obj 453 199 s knob4;
#X obj 563 136 change -1;
#X obj 563 114 >> 2;
#X floatatom 563 180 5 0 0 0 - - -, f 5;
#X obj 563 158 / 1024;
#X obj 563 199 s vol;
#X text 257 49 bitwise math is fast \, right?;
#X text 682 112 decide if expr pedal is correct;
#X connect 0 0 1 0;
#X connect 1 0 2 0;
#X connect 2 0 4 0;
#X connect 2 0 5 0;
#X connect 2 1 10 0;
#X connect 2 1 13 0;
#X connect 2 2 16 0;
#X connect 2 2 23 0;
#X connect 2 3 20 0;
#X connect 2 3 25 0;
#X connect 2 4 28 0;
#X connect 3 0 8 0;
#X connect 5 0 3 0;
#X connect 6 0 7 0;
#X connect 8 0 6 0;
#X connect 9 0 12 0;
#X connect 10 0 9 0;
#X connect 11 0 14 0;
#X connect 12 0 11 0;
#X connect 15 0 18 0;
#X connect 16 0 15 0;
#X connect 17 0 24 0;
#X connect 18 0 17 0;
#X connect 19 0 22 0;
#X connect 20 0 19 0;
#X connect 21 0 26 0;
#X connect 22 0 21 0;
#X connect 27 0 30 0;
#X connect 28 0 27 0;
#X connect 29 0 31 0;
#X connect 30 0 29 0;
#X restore 650 211 pd KNOBS;
#X obj 302 71 metro 100;
#X obj 311 41 tgl 15 0 empty empty empty 17 7 0 10 -262144 -1 -1 1
1;
#X obj 153 208 tgl 15 0 empty empty empty 17 7 0 10 -262144 -1 -1 0
1;
#X text 91 231 talking to python;
#X msg 338 26 loadbang;
#X obj 352 374 r knob1;
#X obj 352 396 vsl 15 128 0 1 0 0 empty empty empty 0 -9 0 10 -262144
-1 -1 4874 1;
#X obj 412 396 vsl 15 128 0 1 0 0 empty empty empty 0 -9 0 10 -262144
-1 -1 4192 1;
#X obj 472 396 vsl 15 128 0 1 0 0 empty empty empty 0 -9 0 10 -262144
-1 -1 8471 1;
#X obj 532 396 vsl 15 128 0 1 0 0 empty empty empty 0 -9 0 10 -262144
-1 -1 8706 1;
#X obj 652 396 vsl 15 128 0 1 0 0 empty empty empty 0 -9 0 10 -262144
-1 -1 7776 1;
#X obj 412 374 r knob2;
#X obj 472 374 r knob3;
#X obj 532 374 r knob4;
#X obj 652 374 r vol;
#X obj 353 585 r aux;
#X obj 353 607 tgl 15 0 empty empty empty 17 7 0 10 -262144 -1 -1 0
1;
#X obj 462 581 r notes;
#X obj 462 603 unpack;
#X floatatom 462 625 5 0 0 0 - - -, f 5;
#X floatatom 506 625 5 0 0 0 - - -, f 5;
#N canvas 995 358 450 300 AUDIOIO 0;
#X obj 108 73 adc~;
#X obj 57 115 s~ inL;
#X obj 154 114 s~ inR;
#X msg 283 233 \; pd dsp 0;
#X msg 358 232 \; pd dsp 1;
#X connect 0 0 1 0;
#X connect 0 1 2 0;
#X restore 666 244 pd AUDIOIO;
#X obj 791 284 poly 6 1;
#X obj 788 309 pack 0 0 0;
#X obj 788 331 route 1 2 3 4 5 6;
#X obj 788 353 print 1;
#X obj 811 381 print 2;
#X obj 790 244 r notes;
#X obj 830 408 print 3;
#X obj 853 444 print 4;
#X obj 871 481 print 5;
#X obj 899 370 print 6;
#X connect 0 0 5 0;
#X connect 1 0 0 0;
#X connect 2 0 0 0;
#X connect 3 0 0 0;
#X connect 4 0 0 0;
#X connect 5 0 23 0;
#X connect 5 1 6 0;
#X connect 5 3 12 0;
#X connect 5 4 13 0;
#X connect 6 0 7 0;
#X connect 6 1 8 0;
#X connect 6 2 9 0;
#X connect 6 3 10 0;
#X connect 6 4 11 0;
#X connect 21 0 4 0;
#X connect 22 0 21 0;
#X connect 25 0 22 0;
#X connect 26 0 27 0;
#X connect 32 0 28 0;
#X connect 33 0 29 0;
#X connect 34 0 30 0;
#X connect 35 0 31 0;
#X connect 36 0 37 0;
#X connect 38 0 39 0;
#X connect 39 0 40 0;
#X connect 39 1 41 0;
#X connect 43 0 44 0;
#X connect 43 1 44 1;
#X connect 43 2 44 2;
#X connect 44 0 45 0;
#X connect 45 0 46 0;
#X connect 45 1 47 0;
#X connect 45 2 49 0;
#X connect 45 3 50 0;
#X connect 45 4 51 0;
#X connect 45 5 52 0;
#X connect 48 0 43 0;
