#N canvas 10 10 200 200 10;
#N canvas 20 20 420 300 META 0;
#X text 10 10 META this is a prototype of a libdir meta file;
#X text 10 10 NAME iem_bin_ambi;
#X text 10 10 AUTHOR IEM/KUG, Graz, Austria;
#X text 10 10 DESCRIPTION calculate the product of an ambisonic decoder-matrix and the binaural HRIR's (in frequency and in time domain);
#X text 10 10 LICENSE GNU GPL;
#X text 10 10 VERSION ;
#X restore 10 10 pd META;
