#N canvas 977 377 457 458 10;
#X obj 68 36 inlet;
#X obj 68 300 outlet;
#X obj 68 143 exp;
#X obj 68 115 *;
#X obj 144 32 inlet;
#X obj 68 165 - 1;
#X obj 68 196 /;
#X obj 106 133 exp;
#X obj 106 155 - 1;
#X obj 195 17 loadbang;
#X obj 195 55 log;
#X msg 195 36 100000;
#X obj 144 94 f 11.5129;
#X obj 68 60 t f f;
#X obj 68 82 abs;
#X obj 104 216 * 2;
#X obj 104 236 - 1;
#X obj 104 196 > 0;
#X obj 68 268 *;
#X connect 0 0 13 0;
#X connect 2 0 5 0;
#X connect 3 0 2 0;
#X connect 4 0 12 0;
#X connect 5 0 6 0;
#X connect 6 0 18 0;
#X connect 7 0 8 0;
#X connect 8 0 6 1;
#X connect 9 0 11 0;
#X connect 10 0 12 0;
#X connect 11 0 10 0;
#X connect 12 0 3 1;
#X connect 12 0 7 0;
#X connect 13 0 14 0;
#X connect 13 1 17 0;
#X connect 14 0 3 0;
#X connect 15 0 16 0;
#X connect 16 0 18 1;
#X connect 17 0 15 0;
#X connect 18 0 1 0;
