#N canvas 329 82 611 832 10;
#X floatatom 199 344 5 0 0 0 - - -;
#X floatatom 119 343 5 0 0 0 - - -;
#X obj 44 514 timeroll;
#X obj 44 467 min 1;
#X obj 44 487 max 0;
#X obj 44 418 + 1;
#X obj 44 442 / 2;
#X obj 44 394 unpack f f f;
#X obj 162 45 vsl 15 128 -1 1 0 0 empty empty empty 0 -8 0 8 -262144
-1 -1 6900 0;
#X obj 369 28 gcanvas 100 100;
#X obj 369 136 - 50;
#X obj 462 134 - 50;
#X obj 369 158 / 100;
#X obj 462 156 / 100;
#X obj 213 45 vsl 15 128 -1 1 0 0 empty empty empty 0 -8 0 8 -262144
-1 -1 4500 0;
#X obj 369 181 pack f f;
#X obj 369 204 t l b;
#X msg 399 277 0;
#X msg 399 302 grab_on \$1;
#X obj 44 266 loadbang;
#X obj 399 251 delay 200;
#X msg 433 278 0.3;
#X msg 369 227 grab \$1 \$2 0;
#X obj 258 47 vsl 15 128 -1 1 0 0 empty empty empty 0 -8 0 8 -262144
-1 -1 4500 0;
#X msg 162 197 force \$1 0 0;
#X msg 213 219 force 0 \$1 0;
#X msg 259 250 force 0 0 \$1;
#X obj 44 290 metro 20;
#X obj 44 367 pmcube_3d 0.2 0.2;
#X connect 0 0 28 2;
#X connect 1 0 28 1;
#X connect 3 0 4 0;
#X connect 4 0 2 0;
#X connect 5 0 6 0;
#X connect 6 0 3 0;
#X connect 7 0 5 0;
#X connect 7 1 5 0;
#X connect 7 2 5 0;
#X connect 8 0 24 0;
#X connect 9 0 10 0;
#X connect 9 1 11 0;
#X connect 10 0 12 0;
#X connect 11 0 13 0;
#X connect 12 0 15 0;
#X connect 13 0 15 1;
#X connect 14 0 25 0;
#X connect 15 0 16 0;
#X connect 16 0 22 0;
#X connect 16 1 21 0;
#X connect 16 1 20 0;
#X connect 17 0 18 0;
#X connect 18 0 28 0;
#X connect 19 0 27 0;
#X connect 20 0 17 0;
#X connect 21 0 18 0;
#X connect 22 0 28 0;
#X connect 23 0 26 0;
#X connect 24 0 28 0;
#X connect 25 0 28 0;
#X connect 26 0 28 0;
#X connect 27 0 28 0;
#X connect 28 0 7 0;
