#N canvas 1257 131 702 349 10;
#X obj 31 34 inlet;
#X obj 80 130 loadbang;
#X obj 31 314 outlet;
#X obj 80 156 pack \$1 \$2;
#X obj 259 34 inlet;
#X obj 360 34 inlet;
#X msg 360 81 setK lnk \$1;
#X obj 453 35 inlet;
#X msg 31 81 bang \, get massesPos out \, get massesForces out;
#X obj 140 315 outlet;
#X obj 31 262 route massesPosId massesForcesId;
#X obj 31 57 t b l;
#X msg 453 81 setD damp \$1;
#X obj 156 128 bng 15 250 50 0 empty empty empty 0 -6 0 8 -262144 -1
-1;
#X msg 259 130 forceX out \$1 \, forceY out \$2 \, forceZ out \$3;
#X msg 61 104 posX in \$1 \, posY in \$2 \, posZ in \$3;
#X obj 552 35 inlet;
#X msg 552 81 setL lnk \$1;
#X obj 31 240 pmpd3d;
#X obj 31 286 route 1;
#X obj 140 287 route 1;
#X msg 80 182 reset \, mass in 0 1 0 0 0 \, mass out 1 1 0 0 0 \, link
lnk in out \$1 0 \, setDEnv \$2;
#X connect 0 0 11 0;
#X connect 1 0 3 0;
#X connect 3 0 21 0;
#X connect 4 0 14 0;
#X connect 5 0 6 0;
#X connect 6 0 18 0;
#X connect 7 0 12 0;
#X connect 8 0 18 0;
#X connect 10 0 19 0;
#X connect 10 1 20 0;
#X connect 11 0 8 0;
#X connect 11 1 15 0;
#X connect 12 0 18 0;
#X connect 13 0 3 0;
#X connect 14 0 18 0;
#X connect 15 0 18 0;
#X connect 16 0 17 0;
#X connect 17 0 18 0;
#X connect 18 0 10 0;
#X connect 19 0 2 0;
#X connect 20 0 9 0;
#X connect 21 0 18 0;
