#N canvas 317 255 569 441 10;
#X msg 212 95 1 1 5;
#X obj 113 108 metro 20;
#X obj 113 204 sel 0 1 2 3;
#X obj 128 269 + 1;
#X obj 113 241 f;
#X floatatom 113 297 5 0 0 0 - - -, f 5;
#X obj 171 272 + 1;
#X obj 156 244 f;
#X floatatom 156 298 5 0 0 0 - - -, f 5;
#X obj 211 271 + 1;
#X obj 196 243 f;
#X floatatom 196 298 5 0 0 0 - - -, f 5;
#X obj 113 83 tgl 15 0 empty empty empty 0 -6 0 8 -262144 -1 -1 0 1
;
#X msg 236 207 0;
#X obj 251 276 + 1;
#X obj 236 248 f;
#X floatatom 236 299 5 0 0 0 - - -, f 5;
#X msg 216 128 1 1 0 2;
#X obj 113 155 rnd-stat;
#X text 262 93 5 time more 2 than 1 and 0;
#X text 282 128 0 \, 1 \, no 2 \, and 2 time more 3;
#X text 131 9 random with probabilty weight;
#X text 114 39 inlet 1 : bang;
#X text 113 54 inlet 2 : list of weight;
#X connect 0 0 18 1;
#X connect 1 0 18 0;
#X connect 2 0 4 0;
#X connect 2 1 7 0;
#X connect 2 2 10 0;
#X connect 2 3 15 0;
#X connect 3 0 4 1;
#X connect 4 0 3 0;
#X connect 4 0 5 0;
#X connect 6 0 7 1;
#X connect 7 0 6 0;
#X connect 7 0 8 0;
#X connect 9 0 10 1;
#X connect 10 0 9 0;
#X connect 10 0 11 0;
#X connect 12 0 1 0;
#X connect 13 0 4 0;
#X connect 13 0 7 0;
#X connect 13 0 10 0;
#X connect 13 0 15 0;
#X connect 14 0 15 1;
#X connect 15 0 14 0;
#X connect 15 0 16 0;
#X connect 17 0 18 1;
#X connect 18 0 2 0;
