#N canvas 359 218 610 345 10;
#X obj 85 158 split_n;
#X msg 124 129 0.3 0.5 0.6 0.7 0.9;
#X obj 124 103 loadbang;
#X floatatom 85 68 5 0 0 0 - - -, f 5;
#X obj 85 182 unpack f f f f;
#X floatatom 85 209 5 0 0 0 - - -, f 5;
#X floatatom 112 231 5 0 0 0 - - -, f 5;
#X floatatom 139 254 5 0 0 0 - - -, f 5;
#X floatatom 166 274 5 0 0 0 - - -, f 5;
#X text 121 210 from 0.3 to 0.5;
#X text 148 230 from 0.5 to 0.6;
#X text 84 3 split_n is a bit like moses \, but provide multiple spliting
point. output is a list.;
#X text 254 129 list of spliting point;
#X connect 0 0 4 0;
#X connect 1 0 0 1;
#X connect 2 0 1 0;
#X connect 3 0 0 0;
#X connect 4 0 5 0;
#X connect 4 1 6 0;
#X connect 4 2 7 0;
#X connect 4 3 8 0;
