#N canvas 2600 374 630 433 10;
#N canvas 1920 201 548 621 serial_connection 0;
#X obj 280 70 loadbang;
#X msg 282 138 devicename /dev/ttyS1;
#X obj 100 171 comport;
#X msg 280 159 baud 115200;
#X obj 86 70 inlet;
#X obj 105 393 outlet;
#X msg 310 557 resetstm;
#X obj 321 310 select 0 1;
#X obj 247 448 metro 100;
#X obj 247 428 tgl 15 0 empty empty empty 17 7 0 10 -262144 -1 -1 0
1;
#X msg 15 440 /hello;
#X obj 329 336 bng 15 250 50 0 empty empty empty 17 7 0 10 -262144
-1 -1;
#X obj 335 414 f;
#X obj 367 414 + 1;
#X floatatom 335 436 5 0 0 0 - - -;
#X obj 246 406 del 50;
#X obj 246 382 loadbang;
#X msg 330 359 0;
#X obj 335 455 > 3;
#X obj 328 481 change;
#X obj 309 513 tgl 15 0 empty empty empty 17 7 0 10 -262144 -1 -1 0
1;
#X obj 309 536 metro 500;
#X text 299 241 keepalive insurance VVV;
#X msg 357 107 close;
#X msg 341 190 stty -F /dev/ttyS1 115200;
#X obj 280 92 del 20;
#X obj 465 137 del 50;
#X obj 100 193 slipdec;
#X obj 102 217 unpackOSC, f 11;
#X obj 86 114 slipenc;
#X obj 86 92 packOSC;
#X obj 342 212 shell;
#X obj 317 278 routeOSC /hello;
#X obj 310 580 shell;
#X obj 102 255 routeOSC /key;
#X obj 103 288 route 500;
#X msg 103 328 /key 13 \$1;
#X text 172 306 13/Newline error;
#X msg 154 359 /key \$1 \$2;
#X connect 0 0 25 0;
#X connect 0 0 26 0;
#X connect 1 0 2 0;
#X connect 2 0 27 0;
#X connect 3 0 2 0;
#X connect 4 0 30 0;
#X connect 6 0 33 0;
#X connect 7 1 11 0;
#X connect 8 0 10 0;
#X connect 8 0 12 0;
#X connect 9 0 8 0;
#X connect 10 0 30 0;
#X connect 11 0 17 0;
#X connect 12 0 13 0;
#X connect 12 0 14 0;
#X connect 13 0 12 1;
#X connect 14 0 18 0;
#X connect 15 0 9 0;
#X connect 15 0 17 0;
#X connect 16 0 15 0;
#X connect 17 0 12 0;
#X connect 17 0 20 0;
#X connect 17 0 9 0;
#X connect 18 0 19 0;
#X connect 19 0 20 0;
#X connect 20 0 21 0;
#X connect 21 0 6 0;
#X connect 23 0 2 0;
#X connect 24 0 31 0;
#X connect 25 0 1 0;
#X connect 25 0 3 0;
#X connect 26 0 24 0;
#X connect 27 0 28 0;
#X connect 28 0 32 0;
#X connect 28 0 34 0;
#X connect 29 0 2 0;
#X connect 30 0 29 0;
#X connect 32 0 7 0;
#X connect 34 0 35 0;
#X connect 34 1 5 0;
#X connect 35 0 36 0;
#X connect 35 1 38 0;
#X connect 36 0 5 0;
#X connect 38 0 5 0;
#X restore 153 164 pd serial_connection;
#X msg 48 76 /hello;
#X msg 49 126 /disablemux;
#X msg 51 100 /enablemux;
#X msg 153 122 /getknobs;
#X obj 219 219 unpack f f f f f f;
#X floatatom 219 241 5 0 0 0 - - -;
#X floatatom 243 262 5 0 0 0 - - -;
#X floatatom 268 281 5 0 0 0 - - -;
#X floatatom 292 241 5 0 0 0 - - -;
#X floatatom 317 260 5 0 0 0 - - -;
#X floatatom 352 231 5 0 0 0 - - -;
#X floatatom 419 227 5 0 0 0 - - -;
#N canvas 2777 262 338 257 send_to_udp 0;
#X obj 61 188 == 0;
#X obj 61 210 metro 100;
#X obj 268 186 t b;
#X obj 142 94 loadbang;
#X obj 61 28 inlet;
#X msg 142 127 connect localhost 3998;
#X text 167 108 start python ser first;
#X obj 61 166 udpsend;
#X obj 61 56 packOSC;
#X connect 0 0 1 0;
#X connect 1 0 2 0;
#X connect 2 0 5 0;
#X connect 3 0 5 0;
#X connect 4 0 8 0;
#X connect 5 0 7 0;
#X connect 7 0 0 0;
#X connect 8 0 7 0;
#X restore 271 338 pd send_to_udp;
#X obj 153 101 metro 100;
#X obj 153 82 tgl 15 0 empty empty empty 17 7 0 10 -262144 -1 -1 1
1;
#X obj 153 208 tgl 15 0 empty empty empty 17 7 0 10 -262144 -1 -1 0
1;
#X obj 153 59 loadbang;
#X obj 300 29 loadbang;
#X msg 300 52 port 3999;
#X text 384 51 receive from python:3999;
#X text 392 291 send to python:3998;
#X obj 300 74 udpreceive;
#X obj 300 96 unpackOSC;
#X obj 153 186 routeOSC /hello /knobs /key /enc /encbut;
#X msg 405 127 /encbutton;
#X obj 489 222 change;
#X obj 471 254 t b a;
#X obj 479 349 f;
#X obj 535 249 bng 15 250 50 0 empty empty empty 17 7 0 10 -262144
-1 -1;
#X floatatom 479 371 5 0 0 0 - - -;
#X obj 441 81 tgl 15 0 empty empty empty 17 7 0 10 -262144 -1 -1 1
1;
#X obj 417 100 metro 100;
#X msg 440 397 /encbut \$1;
#X obj 50 274 routeOSC /hello /encbut;
#X obj 102 313 routeOSC /key;
#X obj 102 335 print hello;
#X connect 0 0 24 0;
#X connect 0 0 34 0;
#X connect 1 0 0 0;
#X connect 2 0 0 0;
#X connect 3 0 0 0;
#X connect 4 0 0 0;
#X connect 5 0 6 0;
#X connect 5 1 7 0;
#X connect 5 2 8 0;
#X connect 5 3 9 0;
#X connect 5 4 10 0;
#X connect 12 0 28 1;
#X connect 12 0 26 0;
#X connect 14 0 4 0;
#X connect 15 0 14 0;
#X connect 17 0 15 0;
#X connect 18 0 19 0;
#X connect 18 0 31 0;
#X connect 19 0 22 0;
#X connect 22 0 23 0;
#X connect 23 0 0 0;
#X connect 24 0 16 0;
#X connect 24 1 5 0;
#X connect 24 3 11 0;
#X connect 24 4 12 0;
#X connect 25 0 0 0;
#X connect 26 0 29 0;
#X connect 26 0 27 0;
#X connect 27 0 28 0;
#X connect 28 0 30 0;
#X connect 30 0 33 0;
#X connect 31 0 32 0;
#X connect 32 0 25 0;
#X connect 33 0 13 0;
#X connect 34 2 13 0;
#X connect 34 2 35 0;
#X connect 35 0 36 0;
