#N canvas 200 265 583 536 10;
#X obj 159 206 jack-connect;
#X obj 159 233 tgl 15 0 empty empty empty 0 -6 0 8 -262144 -1 -1 0
1;
#X msg 138 28 connect;
#X msg 151 55 toggle;
#X msg 178 105 symbol alsa_pcm;
#X msg 217 149 symbol pure_data_0;
#X msg 160 81 query;
#X msg 339 24 bang;
#X msg 404 22 0;
#X obj 368 46 metro 50;
#X msg 195 129 symbol capture_2;
#X msg 238 171 symbol input0;
#X text 329 105 output client;
#X text 328 127 output port;
#X text 365 149 input client;
#X text 366 171 input port;
#X msg 46 29 disconnect;
#X text 207 234 output is 1 for connect(ed) 0 for disconnect(ed);
#X text 221 80 doesn't change the connection only outputs the state
;
#N canvas 51 246 507 361 META 0;
#X text 12 5 KEYWORDS control jack;
#X text 12 25 LICENSE GPL v2;
#X text 12 45 DESCRIPTION manage Jack connections;
#X text 12 65 WEBSITE http://puredata.info/downloads/jackx/;
#X text 12 85 INLET_0 symbol bang;
#X text 12 105 INLET_1 symbol;
#X text 12 125 INLET_2 symbol;
#X text 12 145 INLET_3 symbol;
#X text 12 165 INLET_4 symbol;
#X text 12 185 OUTLET_0 float;
#X text 12 205 AUTHOR Gerard van Dongen;
#X text 12 225 RELEASE_DATE 2003;
#X restore 519 502 pd META;
#X obj 99 390 tgl 15 0 empty empty empty 0 -6 0 8 -262144 -1 -1 0 1
;
#X msg 99 300 query;
#X obj 99 369 jack-connect system capture_1 pure_data_0 input0;
#X msg 108 325 connect;
#X msg 116 346 disconnect;
#X obj 99 411 bng 15 250 50 0 empty empty empty 17 7 0 10 -262144 -1
-1;
#X text 8 267 you can also put the connection description as arguments
to the object:;
#X obj 187 486 tgl 15 0 empty empty empty 0 -6 0 8 -262144 -1 -1 0
1;
#X msg 187 399 query;
#X msg 196 421 connect;
#X msg 204 442 disconnect;
#X obj 187 507 bng 15 250 50 0 empty empty empty 17 7 0 10 -262144
-1 -1;
#X obj 187 465 jack-connect pd-extended_0 output1 system playback_2
;
#X connect 0 0 1 0;
#X connect 2 0 0 0;
#X connect 3 0 0 0;
#X connect 4 0 0 1;
#X connect 5 0 0 3;
#X connect 6 0 0 0;
#X connect 7 0 9 0;
#X connect 8 0 9 0;
#X connect 9 0 3 0;
#X connect 10 0 0 2;
#X connect 11 0 0 4;
#X connect 16 0 0 0;
#X connect 20 0 25 0;
#X connect 21 0 22 0;
#X connect 22 0 20 0;
#X connect 23 0 22 0;
#X connect 24 0 22 0;
#X connect 27 0 31 0;
#X connect 28 0 32 0;
#X connect 29 0 32 0;
#X connect 30 0 32 0;
#X connect 32 0 27 0;
