#N canvas 15 49 200 200 10;
#N canvas 25 49 420 300 META 1;
#X text 13 41 NAME jackx;
#X text 10 25 AUTHOR Gerard van Dongen;
#X text 10 10 VERSION 0.1;
#X text 10 60 LICENSE GPL;
#X restore 10 10 pd META;
