#N canvas 10 10 200 200 10;
#N canvas 20 20 420 300 META 0;
#X text 10 10 META this is a prototype of a libdir meta file;
#X text 10 10 NAME rtc;
#X text 10 10 AUTHOR Karlheinz Essl and Frank Barknecht;
#X text 10 10 LICENSE Pd license;
#X text 10 10 DESCRIPTION Realtime Composition Library for Max ported to Pd;
#X restore 10 10 pd META;
